<?xml version="1.0" encoding="utf-8"?>
<!-- Generator: Adobe Illustrator 27.5.0, SVG Export Plug-In . SVG Version: 6.00 Build 0)  -->
<svg version="1.1" xmlns="http://www.w3.org/2000/svg" xmlns:xlink="http://www.w3.org/1999/xlink" x="0px" y="0px"
	 viewBox="0 0 750 500" style="enable-background:new 0 0 750 500;" xml:space="preserve">
<g id="BACKGROUND">
	<g>
		<rect y="-0.004" style="fill:#FFFFFF;" width="750" height="500"/>
	</g>
	<g>
		
			<rect x="410.096" y="195.572" transform="matrix(0.9533 0.3021 -0.3021 0.9533 78.5981 -115.0108)" style="fill:#FFFFFF;" width="2.045" height="2.045"/>
		
			<rect x="411.431" y="198.127" transform="matrix(0.9533 0.302 -0.302 0.9533 79.4176 -115.2794)" style="fill:#FFFFFF;" width="2.045" height="2.044"/>
		
			<rect x="414.343" y="196.925" transform="matrix(0.9533 0.3021 -0.3021 0.9533 79.205 -116.2308)" style="fill:#FFFFFF;" width="2.045" height="2.045"/>
		
			<rect x="415.679" y="199.479" transform="matrix(0.9533 0.3021 -0.3021 0.9533 80.0391 -116.5148)" style="fill:#FFFFFF;" width="2.045" height="2.045"/>
		
			<rect x="418.59" y="198.277" transform="matrix(0.9533 0.3021 -0.3021 0.9533 79.8119 -117.4507)" style="fill:#FFFFFF;" width="2.045" height="2.044"/>
		
			<rect x="419.926" y="200.832" transform="matrix(0.9533 0.3019 -0.3019 0.9533 80.5716 -117.6555)" style="fill:#FFFFFF;" width="2.045" height="2.044"/>
		
			<rect x="422.838" y="199.629" transform="matrix(0.9533 0.302 -0.302 0.9533 80.3713 -118.6193)" style="fill:#FFFFFF;" width="2.044" height="2.044"/>
		
			<rect x="424.173" y="202.184" transform="matrix(0.9534 0.3019 -0.3019 0.9534 81.1727 -118.8689)" style="fill:#FFFFFF;" width="2.045" height="2.044"/>
		
			<rect x="427.086" y="200.981" transform="matrix(0.9533 0.302 -0.302 0.9533 80.9934 -119.8557)" style="fill:#FFFFFF;" width="2.044" height="2.045"/>
		
			<rect x="428.42" y="203.536" transform="matrix(0.9534 0.3017 -0.3017 0.9534 81.7358 -120.0417)" style="fill:#FFFFFF;" width="2.046" height="2.044"/>
		
			<rect x="431.333" y="202.333" transform="matrix(0.9533 0.3021 -0.3021 0.9533 81.6325 -121.1104)" style="fill:#FFFFFF;" width="2.045" height="2.045"/>
		
			<rect x="432.668" y="204.888" transform="matrix(0.9534 0.3016 -0.3016 0.9534 82.3141 -121.2306)" style="fill:#FFFFFF;" width="2.045" height="2.045"/>
		
			<rect x="435.579" y="203.685" transform="matrix(0.9533 0.3021 -0.3021 0.9533 82.2399 -122.3307)" style="fill:#FFFFFF;" width="2.045" height="2.045"/>
		
			<rect x="436.916" y="206.24" transform="matrix(0.9532 0.3023 -0.3023 0.9532 83.1352 -122.6805)" style="fill:#FFFFFF;" width="2.044" height="2.045"/>
	</g>
</g>
<g id="OBJECTS">
	<g>
		<polygon style="fill:#C4F1F7;" points="677.263,433.136 677.263,341.746 672.921,341.746 672.921,333.296 656.697,333.296 
			656.697,322.646 660.377,322.646 660.377,317.668 644.33,317.668 644.33,307.968 633.359,307.968 633.359,285.934 
			630.223,285.934 630.223,275.667 629.086,275.667 629.086,285.934 627.087,285.934 627.087,307.968 614.061,307.968 
			614.061,293.977 604.248,293.977 604.248,278.95 579.643,278.95 579.643,283.525 581.718,283.525 581.718,316.659 
			571.073,316.659 571.073,307.242 564.359,307.242 564.359,288.155 560.749,288.155 560.749,262.73 558.858,262.73 
			558.858,288.155 555.983,288.155 555.983,307.242 548.533,307.242 548.533,320.269 543.121,320.269 543.121,310.311 
			538.557,310.311 538.557,320.269 536.135,320.269 536.135,299.822 533.578,299.822 533.578,274.917 531.57,274.917 
			531.57,292.519 524.275,299.822 522.009,299.822 522.009,273.45 497.394,273.45 497.394,278.025 499.469,278.025 499.469,311.159 
			488.825,311.159 488.825,301.751 488.4,301.751 488.4,285.31 482.117,285.31 482.117,282.655 478.5,282.655 478.5,257.23 
			476.618,257.23 476.618,282.655 473.742,282.655 473.742,285.31 469.989,285.31 469.989,301.751 466.293,301.751 466.293,314.77 
			461.728,314.77 461.728,314.208 460.87,314.208 460.87,304.82 456.308,304.82 456.308,314.208 453.895,314.208 453.895,294.321 
			451.328,294.321 451.328,269.427 449.331,269.427 449.331,287.026 442.026,294.321 432.655,294.321 432.655,299.822 
			346.949,299.822 346.949,314.208 345.993,314.208 345.993,279.81 327.574,279.81 327.574,310.089 319.323,310.089 
			319.323,308.708 290.605,308.708 290.605,294.321 264.71,294.321 264.71,308.708 258.023,308.708 258.023,272.862 
			240.336,272.862 240.336,288.571 222.725,288.571 222.725,324.542 218.876,324.542 218.876,307.968 213.133,307.968 
			213.133,254.776 211.736,254.776 211.736,307.968 204.595,307.968 204.595,331.126 195.552,331.126 195.552,341.746 
			186.262,341.746 186.262,433.136 		"/>
		<polygon style="fill:#B6E2EB;" points="685.573,433.136 685.573,379.479 675.923,379.479 675.923,368.45 666.532,368.45 
			666.532,344.4 659.115,344.4 659.115,289.155 657.664,289.155 657.664,344.4 651.698,344.4 651.698,361.612 647.702,361.612 
			647.702,324.252 629.413,324.252 629.413,307.939 611.044,307.939 611.044,345.167 604.1,345.167 604.1,330.225 577.202,330.225 
			577.202,345.167 547.378,345.167 547.378,346.602 538.811,346.602 538.811,315.153 519.68,315.153 519.68,350.88 518.686,350.88 
			518.686,335.939 492.16,335.939 492.16,330.225 482.429,330.225 474.843,322.65 474.843,304.37 472.769,304.37 472.769,330.225 
			470.102,330.225 470.102,350.88 467.597,350.88 467.597,341.129 462.857,341.129 462.857,350.88 461.967,350.88 461.967,351.461 
			457.225,351.461 457.225,337.941 453.387,337.941 453.387,320.866 449.489,320.866 449.489,318.11 446.504,318.11 
			446.504,291.704 444.548,291.704 444.548,318.11 440.791,318.11 440.791,320.866 434.266,330.893 434.266,347.97 433.826,347.97 
			433.826,357.74 422.772,357.74 422.772,323.326 424.929,323.326 424.929,318.576 339.195,318.576 339.195,345.966 
			336.841,345.966 329.265,338.38 329.265,330.129 327.181,330.129 327.181,345.966 324.525,345.966 324.525,367.202 
			322.009,367.202 322.009,356.859 317.269,356.859 317.269,367.202 311.646,367.202 311.646,353.671 303.909,353.671 
			303.909,333.851 300.925,333.851 300.925,317.472 298.961,317.472 298.961,333.851 295.212,333.851 295.212,353.671 
			288.237,353.671 288.237,363.454 277.184,363.454 277.184,329.04 279.34,329.04 279.34,324.289 253.783,324.289 253.783,339.895 
			243.592,339.895 243.592,354.427 230.063,344.4 230.063,321.515 227.988,321.515 227.988,310.853 226.804,310.853 
			226.804,321.515 223.549,321.515 223.549,344.4 212.155,344.4 212.155,354.473 195.488,354.473 195.488,359.643 199.311,359.643 
			199.311,370.703 182.463,370.703 182.463,379.479 177.951,379.479 177.951,433.136 		"/>
	</g>
	<g>
		<path style="fill:#DC933F;" d="M504.153,254.226c2.553-1.34,6.341,9.873,2.334,11.802c-4.01,1.929-7.064-6.289-7.064-6.289
			S501.484,255.629,504.153,254.226z"/>
		<g>
			<path style="fill:#FF8B66;" d="M517.542,259.22c-1.02-0.256-4.275,0.128-4.275,0.128c-2.516,0.751-3.91,1.153-5.378,0.89
				c-1.463-0.256-4.667,2.188-4.667,2.188s-1.643-3.364-1.01-7.002c0,0,1.983-0.671,2.365-1.214
				c0.768-1.076,0.436-3.093,2.239-4.767c1.812-1.678,3.257-4.66,3.257-4.66s1.355-0.059,1.162,1.211
				c-0.197,1.281-1.58,2.738-1.492,3.332c0.02,0.121,0.046,0.236,0.09,0.344c0,0,0.004,0.008,0.004,0.029
				c0.147,0.412,0.436,0.763,0.79,0.884c0.017,0.013,0.048,0.029,0.082,0.033c1.421,0.343,4.417-0.948,5.692-1.646
				c1.773-0.976,4.293-2.183,4.435-0.87c0.145,1.313-1.373,0.824-4.903,3.709l0.159,0.438c-0.243,0.223,2.834-0.404,5.453-1.523
				c1.805-0.764,1.748,0.705,1.327,1.234c-0.417,0.539-2.345,1.043-3.643,1.611c-0.862,0.367-1.763,0.744-2.298,0.965l-0.02,0.615
				c3.904,0.183,4.851-1.051,5.43-0.071c0.574,0.972-2.154,1.919-3.4,1.876c-0.537-0.016-1.525,0.211-2.475,0.471
				c2.958,0.721,3.928-0.025,4.217,0.854C520.979,259.187,518.561,259.476,517.542,259.22z"/>
			<path style="fill:#EF6E4B;" d="M508.89,253.985c1.346-1.448,0.998-3.977,0.947-4.287c0.147,0.412,0.436,0.763,0.79,0.884
				C510.763,253.165,508.89,253.985,508.89,253.985z"/>
		</g>
		<path style="fill:#F4B71E;" d="M465.596,218.398c6.28,3.023,17.101,41.329,17.101,41.329s1.662-1.654,2.34-0.462
			c0.678,1.192,19.117-5.04,19.117-5.04s-3.746,6.763,2.334,11.802c0,0-19.695,9.695-26.34,11.003
			c-6.645,1.307-17.063-32.326-17.063-32.326L465.596,218.398z"/>
		<g>
			<path style="fill:#6D6E70;" d="M499.983,431.431c0,0.944-0.097,1.608-0.097,1.608h-27.281c0-0.539,0.009-1.078,0.038-1.608
				c0.309-7.136,2.561-13.327,2.561-13.327l6.819-2.928c0.586,3.515,2.098,5.759,3.996,7.222c0.5,0.397,1.02,0.723,1.56,1.002
				c0.25,0.135,0.501,0.261,0.761,0.376c0.567,0.26,1.155,0.472,1.742,0.646c2.408,0.732,4.844,0.886,6.549,1.146
				C499.54,426.019,499.983,429.38,499.983,431.431z"/>
			<path style="fill:#ADBEC4;" d="M499.983,431.431c0,0.944-0.097,1.608-0.097,1.608h-27.281c0-0.539,0.009-1.078,0.038-1.608
				H499.983z"/>
			<path style="fill:#ADBEC4;" d="M487.58,423.4l-3.785,1.214l-0.799-1.387l3.024-0.829C486.52,422.794,487.04,423.12,487.58,423.4z
				"/>
			<path style="fill:#ADBEC4;" d="M490.083,424.421l-2.551,1.694l-1.57-0.616l2.379-1.724
				C488.908,424.035,489.496,424.247,490.083,424.421z"/>
		</g>
		<g>
			<path style="fill:#6D6E70;" d="M451.556,431.431c-0.067,0.925-0.308,1.608-0.308,1.608h-18.171
				c-0.232-0.529-0.395-1.059-0.512-1.608c-1.79-8.695,10.285-19.337,10.285-19.337l3.832,5.113c0,0-0.442,8.186,2.803,9.89
				C451.431,428.119,451.682,430.044,451.556,431.431z"/>
			<path style="fill:#ADBEC4;" d="M432.565,431.431h18.99c-0.067,0.925-0.308,1.608-0.308,1.608h-18.171
				C432.845,432.51,432.682,431.98,432.565,431.431z"/>
			<path style="fill:#ADBEC4;" d="M448.655,426.446c0,0-7.656-1.746-11.147,0.514v-1.264
				C437.509,425.696,443.948,422.566,448.655,426.446z"/>
			<path style="fill:#ADBEC4;" d="M447.138,424.504c0,0-4.888-2.235-9.629,0l0.541-1.275
				C438.05,423.229,443.714,421.088,447.138,424.504z"/>
		</g>
		<path style="fill:#404041;" d="M421.21,290.871c0,17.286,1.701,34.892,2.138,39.358c0.436,4.466,5.061,54.352,5.712,73.651
			c0.332,9.886,3.506,21.852,3.506,21.852s9.418-7.612,14.753-1.956l1.337-7.714l-2.5-6.073c0,0,2.672-5.024,0.485-8.927
			c-2.187-3.903-2.857-87.335-2.857-87.335l4.207-0.269l20.188,96.53v5.499c0,0,4.389,7.002,4.427,11.473l13.415-4.563l-2.186-6.336
			l1.454-9.048l-4.873-11.799c0,0-13.943-92.273-12.809-102.627L421.21,290.871z"/>
		<path style="fill:#F9D964;" d="M416.497,234.922c0.03,1.13,0.07,2.32,0.12,3.56c0.01,0.26,0.03,0.52,0.04,0.79
			c0.11,2.24,0.23,4.609,0.39,7.06c0.07,1.16,0.15,2.33,0.221,3.53c0.18,2.51,0.359,5.08,0.569,7.641c0.08,1.17,0.181,2.34,0.28,3.5
			c0.19,2.379,0.39,4.77,0.59,7.079c0.1,1.171,0.2,2.32,0.3,3.45c0.271,2.9,0.53,5.66,0.771,8.22c0.11,1.221,0.229,2.4,0.34,3.511
			c0.22,2.289,0.42,4.34,0.61,6.069c0.14,1.44,0.26,2.67,0.37,3.61c0.149,1.439,0.229,2.25,0.229,2.25s2.98,4.189,10.71,6.33
			c4.35,1.21,10.22,1.76,17.899,0.55c3.07-0.49,5.711-1.23,7.94-2.06c6.6-2.471,9.67-5.771,9.67-5.771s0.07-1.27,0.18-3.47
			c0.06-1.04,0.12-2.3,0.19-3.73c0.09-2,0.21-4.359,0.31-6.96c0.051-1.14,0.11-2.34,0.16-3.58c0.11-2.859,0.23-5.94,0.34-9.13
			c0.03-1.15,0.06-2.32,0.101-3.5c0.09-2.73,0.16-5.529,0.21-8.3c0.02-1.16,0.04-2.33,0.06-3.479
			c0.03-2.271,0.061-4.531,0.061-6.711c0.01-1.18,0.01-2.35,0-3.5c-0.01-2.43-0.05-4.77-0.11-6.95c-0.01-0.42-0.03-0.82-0.04-1.22
			c-0.01-0.23-0.01-0.46-0.02-0.69c-0.021-0.711-0.051-1.39-0.08-2.05c-0.021-0.26-0.03-0.51-0.05-0.76c-0.15-2.7-0.37-5-0.66-6.75
			c-0.271-1.69-0.62-2.88-1.04-3.44c-0.09-0.11-0.181-0.211-0.26-0.32c-3.19-3.81-9.2-5.46-16.961-5.88
			c-3.01-0.15-6.289-0.13-9.77,0.04c-2.57,0.12-5.02,0.54-7.29,1.17c-8.939,2.5-13.52,3.91-15.6,6.96
			c-0.271,0.39-0.47,1.23-0.601,2.42c-0.13,1-0.189,2.26-0.229,3.72C416.397,230.072,416.417,232.362,416.497,234.922z"/>
		<g>
			<path style="fill:#6D6E70;" d="M447.421,235.435c0.686-0.033,1.372-0.062,2.059-0.089c-0.027-0.681-0.055-1.362-0.082-2.043
				c-0.692,0.027-1.384,0.056-2.075,0.089C447.355,234.073,447.389,234.754,447.421,235.435z"/>
			<path style="fill:#6D6E70;" d="M444.875,233.539c0.69-0.04,1.382-0.076,2.073-0.11c-0.034-0.681-0.069-1.361-0.105-2.042
				c-0.697,0.034-1.395,0.071-2.091,0.111C444.794,232.178,444.835,232.858,444.875,233.539z"/>
			<path style="fill:#6D6E70;" d="M442.94,235.692c0.685-0.044,1.369-0.086,2.054-0.125c-0.039-0.681-0.079-1.361-0.12-2.042
				c-0.69,0.04-1.381,0.082-2.071,0.127C442.85,234.333,442.895,235.013,442.94,235.692z"/>
			<path style="fill:#6D6E70;" d="M440.365,233.843c0.688-0.052,1.378-0.101,2.068-0.148c-0.048-0.68-0.096-1.359-0.145-2.039
				c-0.694,0.046-1.389,0.096-2.083,0.148C440.26,232.484,440.313,233.164,440.365,233.843z"/>
			<path style="fill:#6D6E70;" d="M438.473,236.032c0.683-0.057,1.365-0.111,2.049-0.163c-0.053-0.68-0.104-1.359-0.157-2.039
				c-0.689,0.052-1.378,0.106-2.066,0.164C438.356,234.674,438.415,235.353,438.473,236.032z"/>
			<path style="fill:#6D6E70;" d="M435.868,234.23c0.685-0.064,1.373-0.126,2.06-0.185c-0.059-0.679-0.119-1.358-0.18-2.037
				c-0.693,0.059-1.387,0.121-2.079,0.186C435.736,232.873,435.802,233.551,435.868,234.23z"/>
			<path style="fill:#6D6E70;" d="M434.017,236.453c0.681-0.069,1.361-0.136,2.043-0.2c-0.065-0.679-0.128-1.358-0.193-2.036
				c-0.686,0.064-1.373,0.132-2.059,0.202C433.877,235.097,433.947,235.775,434.017,236.453z"/>
			<path style="fill:#6D6E70;" d="M431.383,234.698c0.685-0.077,1.37-0.151,2.056-0.222c-0.071-0.678-0.144-1.356-0.216-2.034
				c-0.691,0.072-1.383,0.147-2.073,0.225C431.228,233.343,431.306,234.02,431.383,234.698z"/>
			<path style="fill:#6D6E70;" d="M429.576,236.954c0.678-0.081,1.355-0.161,2.035-0.236c-0.076-0.678-0.152-1.355-0.229-2.032
				c-0.685,0.077-1.369,0.157-2.053,0.24C429.412,235.601,429.494,236.277,429.576,236.954z"/>
			<path style="fill:#6D6E70;" d="M426.914,235.248c0.682-0.089,1.364-0.176,2.048-0.26c-0.084-0.676-0.168-1.353-0.252-2.029
				c-0.69,0.085-1.378,0.172-2.066,0.262C426.734,233.896,426.824,234.572,426.914,235.248z"/>
			<path style="fill:#6D6E70;" d="M425.149,237.536c0.676-0.094,1.352-0.186,2.029-0.274c-0.089-0.675-0.178-1.351-0.267-2.027
				c-0.682,0.089-1.363,0.181-2.044,0.276C424.962,236.186,425.056,236.861,425.149,237.536z"/>
		</g>
		<path style="fill:#EF6E4B;" d="M449.407,207.511l-1.923,11.361c0,0-3.077,1.767-10.228-2.249c0,0,2.914-8.762-0.762-14.525
			c0,0,0.811-0.018,2.098,0.031C438.593,202.129,440.41,208.646,449.407,207.511z"/>
		<g>
			<path style="fill:#6D6E70;" d="M453.423,187.33c0,0,3.281-2.681,0.314-3.553c0,0,1.253-3.281-0.183-3.817
				c-1.435-0.536-2.901,0.783-3.697-0.623c-0.797-1.406-2.533-3.658-5.603-1.452c-3.069,2.206-4.776-1.416-6.095-0.245
				c-1.319,1.171-0.514,3.064-2.666,3.347c-2.152,0.283-4.166,0.784-3.678,2.939c0.488,2.156-1.881,2.297-1.992,3.611
				c-0.111,1.314,0.899,1.697,0.99,2.817c0.09,1.12-1.503,1.597-0.932,3.28c0.572,1.683,2.202,1.443,2.073,2.65
				c-0.129,1.206-1.199,3.875,0.345,4.254c1.544,0.379,2.123,3.097,3.926,2.71C438.026,202.863,453.423,187.33,453.423,187.33z"/>
			<path style="fill:#FF8B66;" d="M434.22,196.675c-0.391,10.77,14.986,15.403,17.873,10.27c0.924-1.644,1.843-6.209,2.181-9.36
				c0.079-0.715,0.136-1.437,0.169-2.161c0.217-4.908-0.656-9.788-3.477-10.87C441.156,180.784,434.698,183.465,434.22,196.675z"/>
			<path style="fill:#1A4850;" d="M444.628,193.443c-0.009,0.734,0.314,1.334,0.723,1.339c0.408,0.005,0.746-0.587,0.756-1.322
				c0.008-0.735-0.314-1.335-0.724-1.339C444.975,192.117,444.637,192.708,444.628,193.443z"/>
			<path style="fill:#1A4850;" d="M451.343,194.082c-0.008,0.735,0.314,1.335,0.723,1.339c0.408,0.005,0.747-0.586,0.756-1.321
				c0.009-0.735-0.314-1.335-0.723-1.339S451.353,193.347,451.343,194.082z"/>
			<path style="fill:#DB614D;" d="M441.75,195.704c-0.189,0.573,0.241,1.229,0.958,1.465c0.717,0.236,1.451-0.039,1.639-0.612
				c0.19-0.573-0.24-1.23-0.957-1.465C442.673,194.857,441.938,195.13,441.75,195.704z"/>
			<path style="fill:#DB614D;" d="M452.746,196.872c0.146,0.563,0.821,0.873,1.527,0.713c0.079-0.715,0.136-1.437,0.169-2.161
				c-0.214-0.033-0.437-0.019-0.661,0.039C453.052,195.659,452.589,196.291,452.746,196.872z"/>
			<g>
				<path style="fill:#8B383E;" d="M443.889,189.73c-0.141,0.012-0.284-0.046-0.377-0.165c-0.147-0.189-0.114-0.461,0.075-0.608
					c1.188-0.932,2.878-0.643,2.949-0.63c0.235,0.042,0.392,0.267,0.35,0.502c-0.041,0.235-0.263,0.393-0.501,0.352
					c-0.014-0.002-1.385-0.23-2.265,0.46C444.052,189.694,443.97,189.724,443.889,189.73z"/>
			</g>
			<g>
				<path style="fill:#8B383E;" d="M453.72,191.015c-0.004,0.001-0.009,0.001-0.014,0.001c-0.24,0.011-0.442-0.174-0.454-0.413
					c-0.015-0.329-0.791-0.494-1.204-0.509c-0.239-0.008-0.426-0.209-0.418-0.448c0.008-0.239,0.213-0.429,0.447-0.418
					c0.736,0.024,1.994,0.333,2.041,1.335C454.13,190.796,453.952,190.996,453.72,191.015z"/>
			</g>
			<g>
				<path style="fill:#EF6E4B;" d="M451.024,199.348c-0.322,0.026-0.688,0.014-1.096-0.037l0.08-0.645
					c0.91,0.113,1.572,0.01,1.868-0.29c0.131-0.131,0.166-0.277,0.175-0.362c-2.039-2.575-2.258-5.857-2.268-5.998l0.65-0.04
					c0.001,0.033,0.224,3.295,2.193,5.716l0.059,0.071l0.012,0.091c0.008,0.056,0.06,0.556-0.359,0.979
					C452.046,199.129,451.606,199.301,451.024,199.348z"/>
			</g>
			<path style="fill:#1A4850;" d="M451.593,200.788c0,0-0.256,0.443-2.572,0.149c-2.315-0.294-3.788-0.916-3.788-0.916
				s0.335,4.658,3.816,4.677C451.938,204.713,451.593,200.788,451.593,200.788z"/>
			<path style="fill:#8B383E;" d="M437.3,196.845c0,0-0.23-3.902,2.133-6.161s0.311-5.581,0.311-5.581s9.465-1.602,13.68,2.227
				c0,0,3.152-5.545-5.853-7.809c-9.006-2.264-23.636,4.732-11.344,23.728l-2.006-6.575L437.3,196.845z"/>
			<path style="fill:#FF8B66;" d="M436.995,196.356c0,0-2.119-2.538-4.125-1.018c-2.004,1.52,1.289,6.181,3.439,6.031
				C438.458,201.22,436.995,196.356,436.995,196.356z"/>
		</g>
		<path style="fill:#6D6E70;" d="M416.657,239.273c0.11,2.24,0.23,4.609,0.39,7.06c0.07,1.16,0.15,2.33,0.221,3.53
			c0.18,2.51,0.359,5.08,0.569,7.641c0.08,1.17,0.181,2.34,0.28,3.5c0.19,2.379,0.39,4.77,0.59,7.079c0.1,1.171,0.2,2.32,0.3,3.45
			c0.271,2.9,0.53,5.66,0.771,8.22c0.11,1.221,0.229,2.4,0.34,3.511c0.22,2.289,0.42,4.34,0.61,6.069c0.14,1.44,0.26,2.67,0.37,3.61
			c0.149,1.439,0.229,2.25,0.229,2.25s2.98,4.189,10.71,6.33c4.35,1.21,10.22,1.76,17.899,0.55c3.07-0.49,5.711-1.23,7.94-2.06
			c6.6-2.471,9.67-5.771,9.67-5.771s0.07-1.27,0.18-3.47c0.06-1.04,0.12-2.3,0.19-3.73c0.09-2,0.21-4.359,0.31-6.96
			c0.051-1.14,0.11-2.34,0.16-3.58c0.11-2.859,0.23-5.94,0.34-9.13c0.03-1.15,0.06-2.32,0.101-3.5c0.09-2.73,0.16-5.529,0.21-8.3
			c0.02-1.16,0.04-2.33,0.06-3.479c0.03-2.271,0.061-4.531,0.061-6.711c0.01-1.18,0.01-2.35,0-3.5c-0.01-2.43-0.05-4.77-0.11-6.95
			c-4.06-0.35-19.35-1.15-47.84,3.35C419.607,238.532,418.087,238.862,416.657,239.273z"/>
		<path style="fill:#DC933F;" d="M433.122,265.208c2.296-0.037,3.596,10.535-0.899,11.648
			C432.223,276.857,426.836,265.314,433.122,265.208z"/>
		<g>
			<path style="fill:#6D6E70;" d="M467.037,232.962v0.01c0.649,0.02,1.3,0.03,1.95,0.05c-0.021-0.711-0.051-1.39-0.08-2.05
				c-0.61-0.01-1.23-0.03-1.84-0.04C467.057,231.612,467.047,232.282,467.037,232.962z"/>
			<path style="fill:#6D6E70;" d="M464.941,234.975c0.686,0.008,1.372,0.019,2.058,0.033c0.013-0.682,0.025-1.364,0.036-2.045
				c-0.691-0.013-1.383-0.024-2.074-0.032C464.955,233.613,464.948,234.294,464.941,234.975z"/>
			<path style="fill:#6D6E70;" d="M462.516,232.934c0.69,0.001,1.382,0.005,2.073,0.011c0.004-0.681,0.009-1.362,0.013-2.044
				c-0.696-0.007-1.393-0.011-2.089-0.012C462.515,231.571,462.516,232.253,462.516,232.934z"/>
			<path style="fill:#6D6E70;" d="M460.461,234.972c0.684-0.004,1.369-0.006,2.055-0.005c0-0.682,0-1.363,0-2.044
				c-0.691-0.001-1.382,0-2.073,0.005C460.449,233.609,460.455,234.29,460.461,234.972z"/>
			<path style="fill:#6D6E70;" d="M458.002,232.975c0.689-0.011,1.379-0.02,2.069-0.026c-0.008-0.681-0.016-1.363-0.023-2.045
				c-0.696,0.006-1.392,0.015-2.088,0.026C457.975,231.612,457.987,232.294,458.002,232.975z"/>
			<path style="fill:#6D6E70;" d="M455.985,235.05c0.684-0.017,1.368-0.031,2.053-0.042c-0.013-0.682-0.024-1.363-0.037-2.045
				c-0.689,0.012-1.379,0.026-2.069,0.044C455.95,233.688,455.968,234.369,455.985,235.05z"/>
			<path style="fill:#6D6E70;" d="M453.494,233.098c0.688-0.024,1.377-0.045,2.066-0.064c-0.02-0.681-0.039-1.363-0.06-2.044
				c-0.695,0.019-1.39,0.041-2.084,0.065C453.442,231.736,453.469,232.417,453.494,233.098z"/>
			<path style="fill:#6D6E70;" d="M451.52,235.21c0.683-0.03,1.364-0.057,2.048-0.08c-0.024-0.682-0.049-1.363-0.073-2.044
				c-0.689,0.025-1.378,0.052-2.066,0.082C451.46,233.848,451.489,234.529,451.52,235.21z"/>
			<path style="fill:#6D6E70;" d="M448.996,233.304c0.686-0.037,1.374-0.071,2.061-0.102c-0.032-0.681-0.063-1.362-0.096-2.042
				c-0.694,0.031-1.387,0.066-2.08,0.103C448.92,231.943,448.958,232.624,448.996,233.304z"/>
		</g>
		<path style="fill:#F4B71E;" d="M438.316,210.677c0,0,3.99,3.995,6.916,4.105l1.758,3.616l1.259-4.044l0.329-1.946
			c0,0,3.521,2.624,3.517,8.249c0,0-1.157-1.479-2.688-1.813l-2.417,1.438l-2.647-1.023l-1.551,2.023c0,0-8.191-2.539-7.928-4.919
			C435.157,213.721,438.316,210.677,438.316,210.677z"/>
		<path style="fill:#F4B71E;" d="M446.404,219.365c0,0,0.228,0.945,0.533,2.597c0.155,0.827,0.369,1.825,0.541,2.989
			c0.187,1.161,0.397,2.471,0.627,3.9c0.204,1.433,0.382,2.992,0.594,4.638c0.215,1.646,0.434,3.383,0.565,5.19
			c0.157,1.805,0.32,3.669,0.485,5.564c0.181,1.895,0.2,3.83,0.31,5.76c0.088,1.932,0.176,3.862,0.263,5.764
			c0.003,1.903,0.005,3.775,0.008,5.588c0,1.815,0.001,3.566,0.002,5.229c0.037,1.664-0.126,3.23-0.17,4.68
			c-0.284,5.798-0.474,9.663-0.474,9.663s0.252-3.862,0.629-9.655c0.068-1.449,0.257-3.017,0.246-4.682
			c0.026-1.663,0.054-3.417,0.083-5.232c0.026-1.815,0.055-3.69,0.082-5.597c-0.056-1.905-0.112-3.841-0.169-5.777
			c-0.078-1.935-0.067-3.876-0.218-5.776c-0.135-1.902-0.267-3.775-0.396-5.587c-0.102-1.815-0.294-3.561-0.482-5.216
			c-0.186-1.656-0.34-3.224-0.521-4.667c-0.208-1.44-0.398-2.761-0.566-3.931c-0.154-1.171-0.355-2.189-0.498-3.028
			c-0.284-1.684-0.495-2.624-0.495-2.624L446.404,219.365z"/>
		<path style="fill:#F4B71E;" d="M442.417,237.617l-9.77,1.333v8.783c0,0,5.112,3.782,10.145,0
			C442.792,247.733,443.51,239.117,442.417,237.617z"/>
		<g>
			<path style="fill:#FF8B66;" d="M433.02,274.746c0.984,0.397,7.879,2.845,9.242,2.658c0.051-0.006,0.102-0.012,0.154-0.025
				c1.328-0.259,2.818-1.561,3.75-1.895c0.968-0.352,1.301-1.274,2.145-1.9c0.852-0.626,1.376-2.534,1.376-2.534
				s2.874-2.576,1.673-2.92c-1.502-0.422-3.199,1.084-3.199,1.084l-3.717,0.637c0,0-4.465-1.765-4.277-2.66
				c0.197-0.895,2.037-0.16,3.654-0.293c1.068-0.082,1.147-1.25,1.147-1.25l-2.752-0.692c0,0-4.018-0.653-4.879-0.296
				c-0.86,0.35-4.036,2.357-4.036,2.357l-5.949-0.131l-1.15,7.771C426.202,274.657,432.037,274.341,433.02,274.746z"/>
			<path style="fill:#EF6E4B;" d="M442.417,277.379c1.328-0.259,2.818-1.561,3.75-1.895c0.968-0.352,1.301-1.274,2.145-1.9
				c0.852-0.626,1.376-2.534,1.376-2.534c-0.731,0.607-4.243,1.246-4.511,1.537c-0.268,0.291,0.15,0.585,0.025,1.18
				c-0.124,0.595-1.368,0.608-1.295,1.243c0.073,0.637,0.02,1.246-0.869,1.539C442.655,276.676,442.509,277.018,442.417,277.379z"/>
		</g>
		<path style="fill:#F4B71E;" d="M417.281,221.984c6.125,3.219,8.294,16.628,7.643,22.066l-6.736,17.896
			c0,0,1.322,2.414,0.238,2.848l14.696,0.414c0,0-3.762,3.918-0.899,11.648c0,0-19.209,5.756-27.439,0
			c-2.38-1.665-3.656-6.414-3.06-9.885C405.941,242.448,417.281,221.984,417.281,221.984z"/>
	</g>
	<g>
		<g>
			<path style="fill:#5174CE;" d="M64.427,107.071V421.59c0,6.321,5.128,11.449,11.46,11.449h148.829
				c6.331,0,11.459-5.128,11.459-11.449V107.071c0-6.331-5.128-11.459-11.459-11.459H75.887
				C69.555,95.611,64.427,100.739,64.427,107.071z"/>
			<path style="fill:#25559F;" d="M68.989,107.071V421.59c0,6.321,5.128,11.449,11.459,11.449h148.829
				c6.332,0,11.46-5.128,11.46-11.449V107.071c0-6.331-5.128-11.459-11.46-11.459H80.448
				C74.117,95.611,68.989,100.739,68.989,107.071z"/>
			<path style="fill:#84A8EF;" d="M75.455,118.391V413.19c0,2.899,1.719,5.413,4.182,6.516c0.896,0.436,1.923,0.667,2.976,0.667
				h144.5c3.95,0,7.157-3.207,7.157-7.183V118.391c0-3.976-3.207-7.183-7.157-7.183h-16.854c-1.667,0-3.207,0.564-4.437,1.539
				c-1.231,0.976-2.155,2.36-2.539,3.977c-0.771,3.232-3.643,5.489-6.978,5.489h-82.884c-3.334,0-6.208-2.257-6.979-5.489
				c-0.768-3.233-3.667-5.516-6.977-5.516H82.612C78.662,111.208,75.455,114.415,75.455,118.391z"/>
			<path style="fill:#5174CE;" d="M135.048,108.794c0,1.763,1.431,3.193,3.194,3.193s3.194-1.43,3.194-3.193
				c0-1.764-1.431-3.195-3.194-3.195S135.048,107.029,135.048,108.794z"/>
			<path style="fill:#5174CE;" d="M147.974,110.391h24.543c0.882,0,1.598-0.715,1.598-1.597l0,0c0-0.882-0.716-1.598-1.598-1.598
				h-24.543c-0.882,0-1.598,0.716-1.598,1.598l0,0C146.376,109.675,147.092,110.391,147.974,110.391z"/>
		</g>
		<g>
			<path style="fill:#FFFFFF;" d="M104.647,176.524c-0.153,0.361-0.302,0.711-0.434,1.083c-1.531,3.797-2.612,7.655-3.275,11.536
				c-2.287,13.351,0.351,26.851,6.967,38.161c1.997,3.431,4.354,6.652,7.045,9.604c4.38,4.817,9.656,8.927,15.713,12.077
				c1.323,0.691,2.68,1.331,4.071,1.92c2.311,0.98,4.656,1.792,7.001,2.451c14.368,3.998,29.304,2.061,41.846-4.63
				c3.566-1.888,6.926-4.171,10.029-6.798c3.343-2.822,6.369-6.062,9.023-9.667c2.329-3.175,4.351-6.634,6.014-10.374
				c0.175-0.352,0.324-0.703,0.478-1.064c7.079-16.695,5.548-34.882-2.589-49.616c-2.227-4.045-4.966-7.831-8.155-11.25
				c-3.658-3.93-7.922-7.378-12.721-10.202c-2.104-1.227-4.316-2.347-6.629-3.328c-1.392-0.589-2.794-1.12-4.21-1.59
				c-12.347-4.136-25.264-3.759-36.834,0.331c-6.128,2.17-11.882,5.379-16.965,9.531
				C114.083,160.337,108.382,167.716,104.647,176.524z"/>
			<path style="fill:#C4F1F7;" d="M129.137,201.098l-6.981,16.465l-14.25,9.74c1.997,3.431,4.354,6.652,7.045,9.604l15.357-10.497
				c0.946-0.645,1.674-1.54,2.12-2.591l7.663-18.076l7.55,3.201l-16.978,40.04c1.323,0.691,2.68,1.331,4.071,1.92
				c2.311,0.98,4.656,1.792,7.001,2.451l16.859-39.767l12.028,5.1l12.958,30.037c3.566-1.888,6.926-4.171,10.029-6.798
				l-7.124-16.513l16.147,6.846c2.329-3.175,4.351-6.634,6.014-10.374l-45.408-19.253l4.181-9.859l19.927,8.448
				c3.023,1.282,6.519-0.131,7.8-3.155l11.39-26.862c-2.227-4.045-4.966-7.831-8.155-11.25l-11.866,27.99l-14.45-6.126
				l13.596-32.065c-2.104-1.227-4.316-2.347-6.629-3.328c-1.392-0.589-2.794-1.12-4.21-1.59l-22.536,53.153l-31.103-13.186
				l16.805-39.635c-6.128,2.17-11.882,5.379-16.965,9.531l-10.794,25.46l-6.015-2.55c-1.531,3.797-2.612,7.655-3.275,11.536
				L129.137,201.098z"/>
		</g>
		<g>
			<path style="fill:#DF302A;" d="M122.487,183.905c0-6.936,5.625-12.56,12.56-12.56c6.936,0,12.561,5.624,12.561,12.56
				c0,3.242-1.239,6.188-3.256,8.418l-9.306,9.37l-9.301-9.37C123.727,190.093,122.487,187.147,122.487,183.905z"/>
			<path style="fill:#FFFFFF;" d="M128.495,183.905c0,3.62,2.936,6.553,6.552,6.553c3.62,0,6.554-2.933,6.554-6.553
				c0-3.62-2.934-6.554-6.554-6.554C131.431,177.351,128.495,180.285,128.495,183.905z"/>
		</g>
	</g>
	<g>
		<path style="fill:#A3A5A8;" d="M426.607,301.623c0,0,12.712-0.943,13.506,0c0.794,0.943,5.949,6.497,0,10.066
			c-5.949,3.569-11.899,3.173-11.899,3.173L426.607,301.623z"/>
		<g>
			<path style="fill:#2D2D2D;" d="M456.186,363.104c2.61,0,12.404,0,15.016,0c14.374,0,26.026,15.656,26.026,34.967
				c0,19.313-11.652,34.969-26.026,34.969c-2.611,0-12.405,0-15.016,0c-14.374,0-26.027-15.655-26.027-34.969
				C430.159,378.76,441.813,363.104,456.186,363.104z"/>
			<path style="fill:#2D2D2D;" d="M430.159,398.07c0,19.313,11.653,34.969,26.027,34.969c14.374,0,26.026-15.655,26.026-34.969
				c0-19.311-11.652-34.967-26.026-34.967C441.813,363.104,430.159,378.76,430.159,398.07z"/>
			<path style="fill:#2D2D2D;" d="M438.358,398.07c0,12.183,7.357,22.063,16.427,22.063c0.561,0,1.11-0.041,1.651-0.109h0.031
				c8.276-1.132,14.734-10.531,14.734-21.954c0-11.42-6.458-20.82-14.734-21.951h-0.031c-0.541-0.071-1.091-0.11-1.651-0.11
				C445.716,376.009,438.358,385.889,438.358,398.07z"/>
			<path style="fill:#2D2D2D;" d="M441.702,398.07c0,11.423,6.457,20.822,14.734,21.953h0.031
				c8.276-1.131,14.734-10.53,14.734-21.953c0-11.421-6.458-20.821-14.734-21.951h-0.031
				C448.159,377.249,441.702,386.65,441.702,398.07z"/>
			<path style="fill:#2D2D2D;" d="M453.041,398.07c0,4.2,2.535,7.605,5.662,7.605c0.193,0,0.382-0.013,0.569-0.038h0.01
				c2.854-0.39,5.08-3.629,5.08-7.567c0-3.937-2.227-7.176-5.08-7.565h-0.01c-0.188-0.025-0.376-0.039-0.569-0.039
				C455.576,390.466,453.041,393.871,453.041,398.07z"/>
			<path style="fill:#2D2D2D;" d="M447.177,385.292c0,0,5.864,4.716,5.071,9.269c-0.877,5.048-8.7,4.996-8.7,4.996
				S442.572,390.96,447.177,385.292z"/>
			<path style="fill:#2D2D2D;" d="M445.175,405.676c0,0,6.364-1.597,9.605,0c3.242,1.598,0,12.108,0,12.108
				S446.51,413.422,445.175,405.676z"/>
			<path style="fill:#2D2D2D;" d="M461.859,416.45c0,0-1.835-7.867,1-10.774c2.837-2.907,6.007,1.098,6.007,1.098
				S467.251,412.876,461.859,416.45z"/>
			<path style="fill:#2D2D2D;" d="M465.071,395.937c-1.377-4.679,2.627-9.35,2.627-9.35s2.497,5.618,2.503,12.345
				C470.201,398.932,466.137,399.563,465.071,395.937z"/>
			<path style="fill:#2D2D2D;" d="M463.694,381.663c0,0-1.646,6.425-4.993,6.758c-3.35,0.334-6.352-8.635-6.352-8.635
				S458.727,374.645,463.694,381.663z"/>
		</g>
		<g>
			<path style="fill:#2D2D2D;" d="M324.655,363.104c2.611,0,12.404,0,15.016,0c14.374,0,26.026,15.656,26.026,34.967
				c0,19.313-11.652,34.969-26.026,34.969c-2.611,0-12.404,0-15.016,0c-14.374,0-26.026-15.655-26.026-34.969
				C298.629,378.76,310.281,363.104,324.655,363.104z"/>
			<path style="fill:#2D2D2D;" d="M298.629,398.07c0,19.313,11.652,34.969,26.026,34.969c14.374,0,26.026-15.655,26.026-34.969
				c0-19.311-11.652-34.967-26.026-34.967C310.281,363.104,298.629,378.76,298.629,398.07z"/>
			<path style="fill:#2D2D2D;" d="M306.827,398.07c0,12.183,7.357,22.063,16.427,22.063c0.562,0,1.11-0.041,1.652-0.109h0.03
				c8.278-1.132,14.734-10.531,14.734-21.954c0-11.42-6.456-20.82-14.734-21.951h-0.03c-0.542-0.071-1.091-0.11-1.652-0.11
				C314.185,376.009,306.827,385.889,306.827,398.07z"/>
			<path style="fill:#2D2D2D;" d="M310.171,398.07c0,11.423,6.457,20.822,14.735,21.953h0.03
				c8.278-1.131,14.734-10.53,14.734-21.953c0-11.421-6.456-20.821-14.734-21.951h-0.03
				C316.628,377.249,310.171,386.65,310.171,398.07z"/>
			<path style="fill:#2D2D2D;" d="M321.51,398.07c0,4.2,2.535,7.605,5.662,7.605c0.193,0,0.383-0.013,0.569-0.038h0.011
				c2.853-0.39,5.079-3.629,5.079-7.567c0-3.937-2.227-7.176-5.079-7.565h-0.011c-0.186-0.025-0.376-0.039-0.569-0.039
				C324.045,390.466,321.51,393.871,321.51,398.07z"/>
			<path style="fill:#2D2D2D;" d="M315.646,385.292c0,0,5.863,4.716,5.072,9.269c-0.879,5.048-8.701,4.996-8.701,4.996
				S311.042,390.96,315.646,385.292z"/>
			<path style="fill:#2D2D2D;" d="M313.644,405.676c0,0,6.365-1.597,9.606,0c3.241,1.598,0,12.108,0,12.108
				S314.979,413.422,313.644,405.676z"/>
			<path style="fill:#2D2D2D;" d="M330.328,416.45c0,0-1.835-7.867,1.002-10.774c2.835-2.907,6.005,1.098,6.005,1.098
				S335.721,412.876,330.328,416.45z"/>
			<path style="fill:#2D2D2D;" d="M333.54,395.937c-1.377-4.679,2.627-9.35,2.627-9.35s2.498,5.618,2.503,12.345
				C338.67,398.932,334.607,399.563,333.54,395.937z"/>
			<path style="fill:#2D2D2D;" d="M332.163,381.663c0,0-1.645,6.425-4.993,6.758c-3.348,0.334-6.352-8.635-6.352-8.635
				S327.195,374.645,332.163,381.663z"/>
		</g>
		<path style="fill:#2D2D2D;" d="M120.626,345.007h392.367v59.959h-264.29c-3.705,2.956-9.761,4.89-16.624,4.89
			c-6.861,0-12.919-1.934-16.623-4.89h-94.83V345.007z"/>
		<g>
			<path style="fill:#404041;" d="M289.601,363.104c2.611,0,12.404,0,15.016,0c14.374,0,26.026,15.656,26.026,34.967
				c0,19.313-11.652,34.969-26.026,34.969c-2.611,0-12.404,0-15.016,0c-14.374,0-26.026-15.655-26.026-34.969
				C263.574,378.76,275.227,363.104,289.601,363.104z"/>
			<path style="fill:#58595B;" d="M263.574,398.07c0,19.313,11.652,34.969,26.026,34.969c14.374,0,26.027-15.655,26.027-34.969
				c0-19.311-11.653-34.967-26.027-34.967C275.227,363.104,263.574,378.76,263.574,398.07z"/>
			<path style="fill:#404041;" d="M271.773,398.07c0,12.183,7.356,22.063,16.426,22.063c0.562,0,1.111-0.041,1.651-0.109h0.031
				c8.277-1.132,14.734-10.531,14.734-21.954c0-11.42-6.457-20.82-14.734-21.951h-0.031c-0.54-0.071-1.09-0.11-1.651-0.11
				C279.13,376.009,271.773,385.889,271.773,398.07z"/>
			<path style="fill:#6D6E70;" d="M275.116,398.07c0,11.423,6.457,20.822,14.734,21.953h0.031
				c8.277-1.131,14.734-10.53,14.734-21.953c0-11.421-6.457-20.821-14.734-21.951h-0.031
				C281.573,377.249,275.116,386.65,275.116,398.07z"/>
			<path style="fill:#404041;" d="M286.455,398.07c0,4.2,2.536,7.605,5.663,7.605c0.192,0,0.382-0.013,0.569-0.038h0.009
				c2.854-0.39,5.08-3.629,5.08-7.567c0-3.937-2.226-7.176-5.08-7.565h-0.009c-0.188-0.025-0.377-0.039-0.569-0.039
				C288.991,390.466,286.455,393.871,286.455,398.07z"/>
			<path style="fill:#404041;" d="M280.592,385.292c0,0,5.863,4.716,5.071,9.269c-0.878,5.048-8.7,4.996-8.7,4.996
				S275.986,390.96,280.592,385.292z"/>
			<path style="fill:#404041;" d="M278.59,405.676c0,0,6.364-1.597,9.604,0c3.242,1.598,0,12.108,0,12.108
				S279.925,413.422,278.59,405.676z"/>
			<path style="fill:#404041;" d="M295.273,416.45c0,0-1.835-7.867,1.001-10.774c2.836-2.907,6.006,1.098,6.006,1.098
				S300.665,412.876,295.273,416.45z"/>
			<path style="fill:#404041;" d="M298.485,395.937c-1.377-4.679,2.628-9.35,2.628-9.35s2.497,5.618,2.503,12.345
				C303.616,398.932,299.551,399.563,298.485,395.937z"/>
			<path style="fill:#404041;" d="M297.108,381.663c0,0-1.646,6.425-4.993,6.758c-3.349,0.334-6.352-8.635-6.352-8.635
				S292.141,374.645,297.108,381.663z"/>
		</g>
		<g>
			<path style="fill:#404041;" d="M158.069,363.104c2.611,0,12.404,0,15.016,0c14.374,0,26.026,15.656,26.026,34.967
				c0,19.313-11.652,34.969-26.026,34.969c-2.611,0-12.404,0-15.016,0c-14.374,0-26.026-15.655-26.026-34.969
				C132.043,378.76,143.695,363.104,158.069,363.104z"/>
			<path style="fill:#58595B;" d="M132.043,398.07c0,19.313,11.652,34.969,26.026,34.969c14.374,0,26.027-15.655,26.027-34.969
				c0-19.311-11.653-34.967-26.027-34.967C143.695,363.104,132.043,378.76,132.043,398.07z"/>
			<path style="fill:#404041;" d="M140.242,398.07c0,12.183,7.356,22.063,16.426,22.063c0.562,0,1.111-0.041,1.652-0.109h0.03
				c8.278-1.132,14.734-10.531,14.734-21.954c0-11.42-6.456-20.82-14.734-21.951h-0.03c-0.541-0.071-1.091-0.11-1.652-0.11
				C147.599,376.009,140.242,385.889,140.242,398.07z"/>
			<path style="fill:#6D6E70;" d="M143.585,398.07c0,11.423,6.457,20.822,14.735,21.953h0.03
				c8.278-1.131,14.734-10.53,14.734-21.953c0-11.421-6.456-20.821-14.734-21.951h-0.03
				C150.042,377.249,143.585,386.65,143.585,398.07z"/>
			<path style="fill:#404041;" d="M154.924,398.07c0,4.2,2.536,7.605,5.663,7.605c0.192,0,0.382-0.013,0.569-0.038h0.01
				c2.853-0.39,5.079-3.629,5.079-7.567c0-3.937-2.227-7.176-5.079-7.565h-0.01c-0.188-0.025-0.377-0.039-0.569-0.039
				C157.46,390.466,154.924,393.871,154.924,398.07z"/>
			<path style="fill:#404041;" d="M149.061,385.292c0,0,5.863,4.716,5.072,9.269c-0.879,5.048-8.701,4.996-8.701,4.996
				S144.457,390.96,149.061,385.292z"/>
			<path style="fill:#404041;" d="M147.059,405.676c0,0,6.364-1.597,9.607,0c3.24,1.598,0,12.108,0,12.108
				S148.394,413.422,147.059,405.676z"/>
			<path style="fill:#404041;" d="M163.742,416.45c0,0-1.835-7.867,1.002-10.774c2.835-2.907,6.005,1.098,6.005,1.098
				S169.136,412.876,163.742,416.45z"/>
			<path style="fill:#404041;" d="M166.954,395.937c-1.377-4.679,2.628-9.35,2.628-9.35s2.498,5.618,2.503,12.345
				C172.085,398.932,168.02,399.563,166.954,395.937z"/>
			<path style="fill:#404041;" d="M165.577,381.663c0,0-1.645,6.425-4.993,6.758c-3.348,0.334-6.352-8.635-6.352-8.635
				S160.609,374.645,165.577,381.663z"/>
		</g>
		<path style="fill:#F9D964;" d="M112.595,389.164h14.219c4.998-18.61,18.741-32.009,34.864-32.009
			c16.123,0,29.866,13.398,34.863,32.009h61.161c4.998-18.61,18.741-32.009,34.864-32.009c16.123,0,29.866,13.398,34.863,32.009
			h207.482c0,0-3.069-38.696-13.886-46.145c-18.586-12.792-82.103-27.463-82.103-27.463s-43.586-50.916-47.597-51.452
			c-40.456-5.365-160.041-7.746-186.421,0c-0.903,0.264-1.903,0.75-2.975,1.417h-0.012c-13.362,8.246-31.116,44.549-31.116,44.549
			s-31.734,3.439-42.051,6.497C118.448,319.626,112.595,389.164,112.595,389.164z"/>
		<path style="fill:#F4B71E;" d="M112.595,389.164h14.219c1.059-3.951,2.511-7.663,4.319-11.067
			c0.441-0.879,0.929-1.737,1.441-2.569c1.451-2.415,3.093-4.641,4.891-6.652c1.367-1.558,2.844-2.975,4.39-4.247
			c5.725-4.736,12.53-7.473,19.824-7.473c9.281,0,17.777,4.439,24.25,11.756c1.844,2.06,3.511,4.344,4.986,6.83
			c2.402,4.022,4.319,8.543,5.627,13.423h61.161c1.154-4.319,2.784-8.353,4.819-12.007c1.69-3.058,3.653-5.854,5.866-8.316
			c1.071-1.227,2.225-2.368,3.415-3.416c2.761-2.438,5.795-4.414,9.03-5.806c3.689-1.595,7.628-2.464,11.733-2.464
			c7.234,0,13.981,2.689,19.681,7.353c1.595,1.298,3.106,2.749,4.521,4.344c4.819,5.401,8.531,12.387,10.661,20.311h49.024
			c0,0-0.595-28.094-10.198-36.923c-9.602-8.841-71.31-32.794-71.31-32.794s-5.176-48.75-8.567-52.569
			c-4.415-4.962-62.993-5.676-84.447-1.356h-0.012c-13.362,8.246-32.544,39.028-32.544,39.028s-30.307,8.96-40.623,12.018
			c-4.058,1.203-7.425,12.696-10.019,26.202c-1.047,5.473-1.964,11.268-2.749,16.85c-0.464,3.2-0.868,6.329-1.225,9.28
			c-1.179,9.52-1.893,17.182-2.108,19.526C112.617,388.901,112.595,389.164,112.595,389.164z"/>
		<path style="fill:#C4F1F7;" d="M525.604,348.648c0,0-12.908,1.515-18.064,4.688c-5.156,3.172-3.172,26.97-3.172,26.97h29.544
			C533.912,380.306,533.221,354.525,525.604,348.648z"/>
		<path style="fill:#C4F1F7;" d="M361.042,348.648c0,0,41.189,1.515,46.345,4.688c5.155,3.172,7.535,26.97,7.535,26.97h-60.184
			C354.738,380.306,353.427,354.525,361.042,348.648z"/>
		<path style="fill:#ED5A28;" d="M524.207,350.847c0,0,3.524,5.426,4.06,13.1c0.694,9.914,0.493,14.675,0.493,14.675h3.569
			c0,0-0.991-24.294-6.247-28.26L524.207,350.847z"/>
		<path style="fill:#FFFFFF;" d="M513.593,363.018c0,5.391,3.07,9.758,6.854,9.758c2.226,0,4.201-1.511,5.438-3.856
			c-0.999,1.369-2.368,2.202-3.879,2.202c-3.142,0-5.688-3.629-5.688-8.103c0-4.474,2.547-8.103,5.688-8.103
			c1.511,0,2.88,0.833,3.879,2.201c-1.237-2.344-3.213-3.856-5.438-3.856C516.663,353.26,513.593,357.628,513.593,363.018z"/>
		<path style="fill:#FFFFFF;" d="M506.751,373.666c0,2.736,1.56,4.955,3.48,4.955c1.131,0,2.133-0.767,2.762-1.958
			c-0.508,0.695-1.202,1.118-1.97,1.118c-1.595,0-2.889-1.844-2.889-4.115c0-2.273,1.294-4.115,2.889-4.115
			c0.767,0,1.462,0.424,1.97,1.117c-0.629-1.189-1.631-1.958-2.762-1.958C508.311,368.71,506.751,370.929,506.751,373.666z"/>
		<path style="fill:#FFFFFF;" d="M382.704,363.018c0,5.391,3.07,9.758,6.853,9.758c2.226,0,4.201-1.511,5.439-3.856
			c-0.999,1.369-2.368,2.202-3.879,2.202c-3.142,0-5.689-3.629-5.689-8.103c0-4.474,2.547-8.103,5.689-8.103
			c1.511,0,2.88,0.833,3.879,2.201c-1.237-2.344-3.213-3.856-5.439-3.856C385.774,353.26,382.704,357.628,382.704,363.018z"/>
		<path style="fill:#FFFFFF;" d="M399.66,373.666c0,2.736,1.56,4.955,3.48,4.955c1.131,0,2.134-0.767,2.762-1.958
			c-0.508,0.695-1.202,1.118-1.97,1.118c-1.595,0-2.889-1.844-2.889-4.115c0-2.273,1.294-4.115,2.889-4.115
			c0.768,0,1.462,0.424,1.97,1.117c-0.628-1.189-1.631-1.958-2.762-1.958C401.22,368.71,399.66,370.929,399.66,373.666z"/>
		<path style="fill:#ED5A28;" d="M362.473,349.766c0,0,12.792,0.893,13.981,1.487c1.189,0.596,3.867,27.368,3.867,27.368h-23.203
			C357.118,378.621,356.523,358.987,362.473,349.766z"/>
		<g>
			<path style="fill:#F4B71E;" d="M414.923,354.918l0.571,2.69l0.25,1.189l0.345,1.631l0.44,2.082l0.333,1.619l0.44,2.058
				l0.334,1.607l0.44,2.058l0.332,1.582l0.429,2.023l0.334,1.583l0.416,2.01l0.333,1.571l0.357,1.69h79.724v-25.393
				c0,0-13.874,2.38-34.507,2.38C444.873,357.298,414.923,354.918,414.923,354.918z"/>
			<path style="fill:#DC933F;" d="M415.494,357.608l4.783,22.703h76.154v-23.013c0,0-13.875,2.38-34.508,2.38
				C445.968,359.678,424.418,358.25,415.494,357.608z"/>
			<g>
				<path style="fill:#F9D964;" d="M415.744,358.797l0.345,1.631c27.903,2.629,56.021,2.606,83.912-0.06v-1.607
					C471.99,361.677,443.754,361.689,415.744,358.797z"/>
				<path style="fill:#F9D964;" d="M416.529,362.51l0.333,1.619c27.654,2.034,55.474,1.998,83.139-0.107v-1.618
					C472.24,364.772,444.29,364.806,416.529,362.51z"/>
				<path style="fill:#F9D964;" d="M417.303,366.187l0.334,1.607c27.415,1.487,54.949,1.439,82.364-0.132v-1.605
					C472.478,367.876,444.825,367.912,417.303,366.187z"/>
				<path style="fill:#F9D964;" d="M418.077,369.852l0.332,1.582c27.166,0.964,54.415,0.929,81.592-0.118v-1.596
					C472.728,370.993,445.361,371.029,418.077,369.852z"/>
				<path style="fill:#F9D964;" d="M418.838,373.457l0.334,1.583c26.927,0.463,53.901,0.452,80.829-0.072v-1.595
					C472.967,374.111,445.872,374.147,418.838,373.457z"/>
				<path style="fill:#F9D964;" d="M419.588,377.05l0.333,1.571h80.08v-1.595C473.204,377.24,446.384,377.252,419.588,377.05z"/>
			</g>
		</g>
		<path style="fill:#F4B71E;" d="M410.961,348.648c0,0-65.183-29.134-96.383-31.579c0,0,56.544,14.98,89.541,31.579H410.961z"/>
		<path style="fill:#F4B71E;" d="M500.001,351.849c0,0-35.436-24.938-73.394-34.779c0,0,38.933,8.006,77.385,33.292L500.001,351.849
			z"/>
		<g>
			<path style="fill:#FFFFFF;" d="M327.073,385.07v20.026c0,2.629,2.13,4.759,4.76,4.759H535.9c2.629,0,4.759-2.13,4.759-4.759
				V385.07c0-2.63-2.13-4.76-4.759-4.76H331.833C329.203,380.311,327.073,382.44,327.073,385.07z"/>
			<path style="fill:#C4F1F7;" d="M327.073,385.07v20.026c0,2.629,2.13,4.759,4.76,4.759h38.672c2.629,0,4.76-2.13,4.76-4.759
				V385.07c0-2.63-2.131-4.76-4.76-4.76h-38.672C329.203,380.311,327.073,382.44,327.073,385.07z"/>
			<rect x="434.164" y="383.083" style="fill:#8F9194;" width="57.71" height="24.393"/>
		</g>
		<path style="fill:#DC933F;" d="M196.185,398.974h61.525l1.189-13.682h-63.904C194.995,385.292,193.804,392.133,196.185,398.974z"
			/>
		<path style="fill:#ED5A28;" d="M112.653,388.426h8.116c1.546-37.874,6.794-41.04,4.616-43.419
			c-1.321-1.44-4.414-2.012-6.651-2.237C115.153,361.499,113.046,384.094,112.653,388.426z"/>
		<path style="fill:#C4F1F7;" d="M106.942,385.07v20.026c0,2.629,2.13,4.759,4.76,4.759h8.924c2.63,0,4.76-2.13,4.76-4.759V385.07
			c0-2.63-2.13-4.76-4.76-4.76h-8.924C109.072,380.311,106.942,382.44,106.942,385.07z"/>
		<g>
			<path style="fill:#DC933F;" d="M289.601,319.442c0,0-0.27,0.496-0.65,1.412c-0.402,0.909-0.896,2.234-1.443,3.847
				c-0.238,0.816-0.496,1.699-0.77,2.635c-0.293,0.932-0.535,1.929-0.75,2.97c-0.225,1.039-0.457,2.114-0.693,3.205
				c-0.167,1.103-0.337,2.223-0.506,3.343c-0.145,1.125-0.341,2.243-0.435,3.353c-0.08,1.112-0.159,2.207-0.236,3.267
				c-0.08,1.059-0.127,2.084-0.177,3.055c-0.026,0.972,0.004,1.893,0.003,2.741c0.003,1.697,0.08,3.111,0.099,4.098
				c0.045,0.987,0.07,1.551,0.07,1.551s0.059-0.564,0.162-1.548c0.076-0.985,0.235-2.389,0.337-4.073
				c0.063-0.842,0.099-1.754,0.195-2.716c0.119-0.959,0.251-1.97,0.355-3.018c0.108-1.046,0.22-2.128,0.333-3.228
				c0.107-1.099,0.316-2.203,0.47-3.314c0.154-1.111,0.31-2.222,0.461-3.315c0.199-1.085,0.396-2.154,0.585-3.188
				c0.189-1.035,0.343-2.042,0.565-2.979c0.204-0.943,0.396-1.836,0.573-2.659c0.205-0.818,0.392-1.568,0.557-2.231
				c0.152-0.672,0.318-1.243,0.459-1.715C289.427,319.983,289.601,319.442,289.601,319.442z"/>
		</g>
		<g>
			<path style="fill:#DC933F;" d="M229.105,314.862c0.001,0-0.496,0.911-1.188,2.6c-0.385,0.832-0.72,1.885-1.146,3.081
				c-0.422,1.196-0.927,2.543-1.29,4.063c-0.408,1.509-0.85,3.143-1.316,4.872c-0.383,1.747-0.763,3.598-1.129,5.516
				c-0.374,1.918-0.785,3.896-1.015,5.934c-0.275,2.031-0.555,4.094-0.835,6.157c-0.124,1.034-0.267,2.066-0.368,3.097
				c-0.071,1.034-0.141,2.065-0.211,3.087c-0.139,2.044-0.276,4.055-0.409,6.001c-0.119,1.946-0.292,3.826-0.283,5.614
				c-0.007,1.788-0.014,3.478-0.021,5.037c-0.021,3.119,0.036,5.718,0.04,7.536c0.03,1.815,0.048,2.855,0.048,2.855
				s0.067-1.038,0.184-2.854c0.092-1.815,0.27-4.406,0.398-7.517c0.067-1.553,0.141-3.237,0.219-5.018
				c0.06-1.781,0.322-3.648,0.445-5.585c0.156-1.938,0.319-3.938,0.485-5.971c0.083-1.017,0.165-2.042,0.249-3.07
				c0.113-1.024,0.273-2.049,0.404-3.075c0.251-2.056,0.503-4.11,0.751-6.135c0.202-2.031,0.585-4,0.932-5.909
				c0.332-1.912,0.654-3.761,0.958-5.514c0.396-1.734,0.77-3.373,1.117-4.887c0.317-1.523,0.725-2.885,1.065-4.101
				c0.348-1.214,0.615-2.287,0.941-3.131c0.308-0.851,0.513-1.537,0.693-1.99C229.008,315.104,229.105,314.862,229.105,314.862z"/>
		</g>
		<g>
			<path style="fill:#DC933F;" d="M172.085,310.533c0,0-0.324,0.598-0.781,1.7c-0.244,0.546-0.514,1.219-0.788,2.002
				c-0.276,0.782-0.633,1.656-0.917,2.638c-0.283,0.983-0.589,2.048-0.913,3.175c-0.352,1.121-0.595,2.333-0.865,3.583
				c-0.256,1.252-0.574,2.538-0.8,3.861c-0.195,1.329-0.393,2.678-0.593,4.026c-0.162,1.355-0.423,2.697-0.494,4.04
				c-0.096,1.337-0.19,2.653-0.282,3.929c-0.077,1.275-0.152,2.506-0.222,3.675c0.001,1.17,0.001,2.276,0.002,3.299
				c-0.003,2.042,0.066,3.743,0.082,4.932c0.04,1.189,0.063,1.867,0.063,1.867s0.062-0.678,0.168-1.864
				c0.081-1.186,0.247-2.879,0.356-4.908c0.061-1.015,0.125-2.113,0.194-3.275c0.127-1.157,0.261-2.377,0.399-3.639
				c0.124-1.264,0.252-2.567,0.381-3.894c0.083-1.33,0.356-2.658,0.53-3.998c0.183-1.34,0.366-2.68,0.546-3.998
				c0.234-1.309,0.467-2.597,0.691-3.843c0.245-1.242,0.398-2.465,0.682-3.591c0.254-1.134,0.494-2.207,0.715-3.197
				c0.237-0.986,0.499-1.879,0.695-2.682c0.195-0.804,0.397-1.494,0.583-2.057C171.855,311.177,172.085,310.533,172.085,310.533z"/>
		</g>
		<g>
			<path style="fill:#DC933F;" d="M142.525,351.677c-0.332-0.363-0.491-0.841-0.447-1.348l0.941-10.747
				c0.086-0.994,0.967-1.805,1.962-1.805h10.75c0.505,0,0.964,0.199,1.295,0.56c0.332,0.362,0.491,0.841,0.447,1.348l-0.941,10.747
				c-0.087,1.012-0.949,1.804-1.962,1.804h-10.749C143.316,352.236,142.857,352.038,142.525,351.677z M144.982,338.968
				c-0.388,0-0.743,0.328-0.777,0.718l-0.94,10.747c-0.016,0.17,0.034,0.326,0.139,0.439c0.104,0.113,0.251,0.175,0.419,0.175
				h10.749c0.388,0,0.743-0.328,0.776-0.718l0.941-10.747c0.016-0.171-0.035-0.326-0.14-0.44c-0.102-0.112-0.251-0.174-0.417-0.174
				H144.982z"/>
		</g>
		<path style="fill:#DC933F;" d="M233.369,326.959c0,0,10.41-0.396,12.195,0.794l-1.04,4.144h-12.247
			C232.277,331.897,232.08,328.347,233.369,326.959z"/>
		<path style="fill:#DC933F;" d="M174.186,326.959c0,0,10.41-0.396,12.195,0.794l-1.04,4.144h-12.246
			C173.096,331.897,172.898,328.347,174.186,326.959z"/>
		<g>
			<path style="fill:#6383EA;" d="M293.733,287.463c0.368,2.582,0.797,5.272,1.249,7.937c1.808,10.602,4.022,20.656,4.022,20.656
				s11.423,0.846,27.761,1.701c3.165,0.156,6.508,0.322,9.982,0.477c0.012,0,0.012,0,0.012,0
				c11.149,0.512,23.715,0.952,36.126,1.131c9.507,0.13,18.931,0.107,27.569-0.154c4.736-0.143,9.222-0.369,13.363-0.679
				c1.213-0.084,2.391-0.19,3.533-0.298c7.092-0.654,12.923-1.618,16.814-2.975c0,0-9.638-12.078-20.05-23.809
				c-0.013-0.012-0.013-0.012-0.013-0.012c-7.508-8.484-15.421-16.767-20.395-20.205c0,0-3.189-0.118-8.424-0.297
				c-8.008-0.262-20.823-0.643-34.389-0.916c-1.892-0.036-3.807-0.071-5.723-0.108c-4.392-0.07-8.817-0.13-13.112-0.166
				c-11.21-0.095-21.621-0.023-28.88,0.357c-4.652,0.238-8.007,0.606-9.424,1.13C292.066,271.864,292.543,279.026,293.733,287.463z"
				/>
			<path style="fill:#6383EA;" d="M233.369,311.69l12.006,0.702l11.862,0.689l5.225,0.31l25.345,1.476c0,0-2.248-14.91-4.235-27.309
				c-0.465-2.891-0.905-5.639-1.31-8.031v-0.012c-0.772-4.594-1.381-7.866-1.595-8.282c-0.285-0.559-5.533-0.915-12.173-1.142
				c-3.509-0.119-7.412-0.203-11.173-0.25c-9.114-0.143-17.408-0.131-17.408-0.131s-2.046,8.567-4.33,24.512
				c-0.168,1.095-0.322,2.213-0.477,3.38c-0.298,2.142-0.596,4.402-0.893,6.77C233.928,306.703,233.654,309.144,233.369,311.69z"/>
			<path style="fill:#6383EA;" d="M176.349,308.917l38.397,2.059l13.269,0.714c0,0,0.643-4.331,1.714-10.507
				c0.345-1.987,0.736-4.177,1.165-6.473c0.214-1.083,0.429-2.202,0.643-3.333c1.44-7.364,3.201-15.397,5.105-21.667
				c0,0-22.883,0.25-33.71,1.963c-1.429,0.226-2.642,0.476-3.57,0.75c-0.273,0.084-0.547,0.19-0.833,0.345
				c-1.261,0.666-2.677,2.012-4.151,3.784c-2.929,3.522-6.117,8.77-8.985,14.028C180.395,299.743,176.349,308.917,176.349,308.917z"
				/>
			<g>
				<g>
					<path style="fill:#84A8EF;" d="M303.18,270.103c20.276,13.803,45.229,31.175,69.705,49.262
						c9.507,0.13,18.931,0.107,27.569-0.154c-22.739-17.314-46.965-34.602-68.395-49.465
						C320.85,269.65,310.439,269.722,303.18,270.103z"/>
				</g>
				<g>
					<path style="fill:#84A8EF;" d="M385.283,270.936c9.316,6.508,19.038,13.409,28.818,20.502
						c-7.508-8.484-15.421-16.767-20.395-20.205C393.707,271.233,390.519,271.114,385.283,270.936z"/>
				</g>
				<g>
					<path style="fill:#84A8EF;" d="M234.214,304.371c-0.286,2.332-0.56,4.772-0.845,7.318l12.006,0.702
						C241.639,309.69,237.902,307.001,234.214,304.371z"/>
					<path style="fill:#84A8EF;" d="M185.392,290.58c9.14,6.259,19.063,13.137,29.354,20.395l13.269,0.714
						c0,0,0.643-4.331,1.714-10.507c-12.435-8.829-24.453-17.17-35.352-24.631C191.448,280.073,188.26,285.321,185.392,290.58z"/>
				</g>
				<g>
					<path style="fill:#84A8EF;" d="M345.172,269.911c20.217,13.792,44.704,30.903,68.646,48.62c1.213-0.084,2.391-0.19,3.533-0.298
						c-21.977-16.776-45.43-33.578-66.456-48.214C349.003,269.983,347.088,269.948,345.172,269.911z"/>
				</g>
				<g>
					<path style="fill:#84A8EF;" d="M235.583,294.222c-0.168,1.095-0.322,2.213-0.477,3.38c7.092,4.914,14.528,10.103,22.131,15.479
						l5.225,0.31C253.359,306.787,244.316,300.35,235.583,294.222z"/>
					<path style="fill:#84A8EF;" d="M198.528,272.768c9.031,6.02,20.121,13.505,32.365,21.942c0.214-1.083,0.429-2.202,0.643-3.333
						c-10.161-7.103-19.835-13.754-28.604-19.704c-1.429,0.226-2.642,0.476-3.57,0.75
						C199.089,272.507,198.814,272.613,198.528,272.768z"/>
				</g>
				<g>
					<path style="fill:#84A8EF;" d="M336.747,318.233c-14.6-10.745-29.296-21.191-43.014-30.771
						c0.368,2.582,0.797,5.272,1.249,7.937c10.066,6.961,20.823,14.505,31.782,22.357
						C329.93,317.913,333.272,318.079,336.747,318.233z"/>
					<path style="fill:#84A8EF;" d="M257.321,269.841c7.448,4.962,16.373,10.959,26.25,17.717c-0.465-2.891-0.905-5.639-1.31-8.031
						v-0.012c-4.771-3.284-9.376-6.438-13.767-9.424C264.985,269.972,261.082,269.888,257.321,269.841z"/>
				</g>
			</g>
		</g>
		<path style="fill:#A3A5A8;" d="M289.601,319.442c0,0-0.694-10.059-1.794-10.927c-1.1-0.868-8.121-5.155-9.217-6.346
			c-1.096-1.19-19.246-0.398-19.69,1.982c-0.444,2.38-2.129,9.521,1.688,10.71c3.817,1.189,18.002,2.207,18.002,2.207
			S284.256,319.438,289.601,319.442z"/>
		<g>
			<path style="fill:#6D6E70;" d="M185.928,368.911c1.844,2.06,3.511,4.344,4.986,6.83v-6.818L185.928,368.911z"/>
			<rect x="190.915" y="359.701" style="fill:#6D6E70;" width="9.277" height="9.276"/>
			<rect x="201.857" y="368.896" style="fill:#6D6E70;" width="9.277" height="9.276"/>
			<rect x="211.138" y="359.68" style="fill:#6D6E70;" width="9.276" height="9.276"/>
			<rect x="222.08" y="368.876" style="fill:#6D6E70;" width="9.276" height="9.276"/>
			<rect x="231.36" y="359.66" style="fill:#6D6E70;" width="9.276" height="9.277"/>
			<rect x="242.302" y="368.856" style="fill:#6D6E70;" width="9.277" height="9.276"/>
			<rect x="251.582" y="359.64" style="fill:#6D6E70;" width="9.277" height="9.276"/>
			<path style="fill:#6D6E70;" d="M262.521,368.827v8.33c1.69-3.058,3.653-5.854,5.866-8.316L262.521,368.827z"/>
			<path style="fill:#6D6E70;" d="M271.803,359.619v5.806c2.761-2.438,5.795-4.414,9.03-5.806H271.803z"/>
			<path style="fill:#6D6E70;" d="M312.247,359.583v4.926c1.595,1.298,3.106,2.749,4.521,4.344h4.76v-9.27H312.247z"/>
			<rect x="323.191" y="368.775" style="fill:#6D6E70;" width="9.277" height="9.276"/>
			<rect x="332.472" y="359.559" style="fill:#6D6E70;" width="9.277" height="9.277"/>
			<rect x="343.414" y="368.754" style="fill:#6D6E70;" width="9.276" height="9.277"/>
			<path style="fill:#6D6E70;" d="M123.304,368.816v9.269l7.829,0.012c0.441-0.879,0.929-1.737,1.441-2.569v-6.711H123.304z"/>
			<path style="fill:#6D6E70;" d="M132.573,368.816v0.059h4.891c1.367-1.558,2.844-2.975,4.39-4.247v-5.022l-9.27-0.011
				L132.573,368.816z"/>
		</g>
		<polygon style="fill:#B6E2EB;" points="258.904,259.405 299.11,259.821 303.62,259.87 327.073,259.87 310.165,227.6 275.11,227.6 
					"/>
		<polygon style="fill:#C4F1F7;" points="299.11,259.821 303.62,259.87 327.073,259.87 310.165,227.6 304.62,227.6 		"/>
	</g>
	<g>
		<path style="fill:#58595B;" d="M626.616,199.754c5.773-0.179,12.77,1.86,13.52,8.771c0.75,6.91-2.988,13.481,0.637,19.598
			c3.625,6.117,6.028,9.439,4.418,14.899c-1.61,5.46-29.34,6.172-34.438-1.985c-5.098-8.157,0.68-18.684,0-25.826
			C610.072,208.072,626.616,199.754,626.616,199.754z"/>
		<path style="fill:#EF6E4B;" d="M600.331,246.017c0,0-10.037,13.165-13.792,16.281c-3.756,3.117-4.919,13.875-0.136,11.799
			c4.781-2.076,16.541-18.1,16.541-18.1L600.331,246.017z"/>
		<path style="fill:#CE364C;" d="M592.872,257.092c0.435,4.74,3.461,11.556,7.676,12.77c0.009,0,0.027,0.009,0.036,0.009
			c0.961,0.272,1.94-0.406,2.892-1.749c0.172-0.235,0.344-0.499,0.517-0.778c0.425-0.707,0.843-1.531,1.259-2.457
			c0.127-0.28,0.254-0.58,0.372-0.878h0.009c0.426-1.024,0.852-2.157,1.26-3.345c0.091-0.271,0.19-0.553,0.281-0.834
			c0.009-0.018,0.009-0.027,0.018-0.045c0.508-1.531,1.133-3.164,1.831-4.822c0.118-0.271,0.235-0.553,0.354-0.833
			c0.263-0.616,0.534-1.233,0.815-1.85c0.127-0.28,0.254-0.561,0.371-0.833c0.472-1.016,0.952-2.021,1.433-3
			c0.136-0.281,0.271-0.562,0.407-0.834c0.327-0.67,0.652-1.322,0.978-1.957c0.136-0.273,0.273-0.544,0.408-0.807
			c2.602-5.039,4.821-8.836,4.821-8.836s-0.091-0.018-0.263-0.055h-0.009c-1.722-0.354-11.237-2.184-13.63-0.489
			c-0.018,0.01-0.028,0.018-0.046,0.036c-0.245,0.182-0.525,0.471-0.824,0.834c-0.554,0.68-1.179,1.623-1.85,2.737
			c-0.208,0.345-0.416,0.707-0.634,1.088c-0.599,1.033-1.215,2.147-1.84,3.29c-0.163,0.29-0.326,0.589-0.481,0.878
			c-0.525,0.961-1.051,1.922-1.559,2.828c-0.172,0.317-0.345,0.616-0.525,0.916c-0.717,1.269-1.404,2.41-2.021,3.299
			c-0.19,0.271-0.371,0.525-0.544,0.742c-0.235,0.281-0.443,0.517-0.644,0.699c-0.253,0.226-0.453,0.552-0.598,0.941
			c-0.19,0.498-0.29,1.115-0.317,1.813v0.01C592.809,256.05,592.826,256.558,592.872,257.092z"/>
		<path style="fill:#AF2243;" d="M592.872,257.089c0.434,4.76,3.478,11.597,7.715,12.784c2.266,0.638,4.581-4.008,6.583-10.044
			c-0.868-8.581-2.745-16.094-2.745-16.094C601.26,246.784,596.804,251.917,592.872,257.089z"/>
		<path style="fill:#EF6E4B;" d="M566.667,432.984c1.697-1.371,6.051-7.243,6.947-10.193c1.265-4.171,2.762-9.902,4.292-16.148
			h6.519c-2.138,6.813-3.507,12.511-4.12,15.077c0.022,0.432,0.12,0.79,0.24,1.204c0.185,0.626,0.546,10.114,0.546,10.114h-14.599
			c0.057-0.018,0.103-0.03,0.131-0.037C566.649,432.993,566.658,432.992,566.667,432.984z"/>
		<path style="fill:#FF8B66;" d="M615.607,406.644h7.707c-1.439,7.94-2.566,14.682-2.566,14.682v11.714h-8.398
			c0.809-3.507,3.144-14.016,3.144-18.447C615.494,411.989,615.537,409.329,615.607,406.644z"/>
		<path style="fill:#5174CE;" d="M576.095,413.843c4.58-17.626,10.25-44.31,10.986-48.729c0.477-2.855,0.902-11.921,2.025-23.049
			c0.295-12.688,1.756-41.702,8.884-58.171l16.778,0.393c-0.68,13.079,12.001,27.192-3.44,42.319
			c-2.011,5.648-8.673,24.802-9.64,33.238c-1.141,9.953-2.997,14.367-8.753,25.471c-4.982,9.611-8.511,20.813-10.624,28.527H576.095
			z"/>
		<path style="fill:#6383EA;" d="M632.962,341.275L632.962,341.275c-1.076,5.572-2.601,9.3-3.44,13.988
			c-1.222,6.825,2.255,16.715-1.252,27.709c-1.659,5.203-4.76,22.387-6.414,31.889h-6.366c0.002-0.09,0.005-0.185,0.005-0.27
			c0-23.129,3.19-50.705,2.717-61.19c-0.199-4.418-0.954-10.686-1.746-16.39c-0.004-0.029-2.468-16.587-4.871-17.976
			c-9.842-5.689-13.604-35.142-13.604-35.142l25.112,1.169c0,0,14.629,12.154,10.788,33.792c0,0,0.015,0.221,0.035,0.61
			C634.537,329.651,633.936,336.226,632.962,341.275z"/>
		<path style="fill:#CE364C;" d="M581.828,433.039c0,0,0.643-8.683-1.053-10.951c0,0-1.877,2.982-4.445,2.982
			c-1.671,0-2.346-3.847-3.775-2.982c-1.254,0.759-2.099,2.929-5.469,5.149c-3.37,2.222-6.107,1.59-6.316,5.802H581.828z"/>
		<path style="fill:#CE364C;" d="M621.948,423.983c0,0-0.104-2.885-4.108-2.547c-4.001,0.335-3.713,3.237-3.713,3.237
			s-0.604-0.466-1.13,0c-0.527,0.468-0.081,4.469-1.094,5.312c-1.013,0.843-0.696,3.054-0.696,3.054h11.688
			c0,0,0.631-2.843-0.527-3.896C621.212,428.09,624.159,424.3,621.948,423.983z"/>
		<path style="fill:#CE364C;" d="M593.56,295.382c0,0,4.75,13.948,23.7,22.956c17.454,8.311,23.399,6.853,23.399,6.853
			s-0.861-3-1.821-7.877c-0.055-0.299-0.118-0.607-0.182-0.914c-0.481-2.557-0.979-5.574-1.396-8.892
			c-0.036-0.299-0.072-0.599-0.108-0.906c-0.273-2.31-0.499-4.768-0.652-7.313c-0.018-0.31-0.037-0.617-0.055-0.926
			c-0.1-1.857-0.154-3.76-0.163-5.7c0-0.299,0-0.606,0.009-0.915c-0.009-0.48,0-0.961,0.009-1.45c0.027-1.324,0.2-2.855,0.463-4.55
			c0.026-0.163,0.054-0.326,0.081-0.498v-0.009c0.281-1.677,0.652-3.508,1.078-5.447c0.454-2.103,0.97-4.323,1.487-6.616
			c0.072-0.308,0.136-0.616,0.208-0.924c0.326-1.459,0.652-2.936,0.961-4.431h0.009c0.063-0.291,0.117-0.59,0.182-0.889
			c0.208-1.006,0.407-2.022,0.598-3.036c0.055-0.3,0.109-0.607,0.163-0.905c0.245-1.369,0.463-2.721,0.652-4.053
			c0.037-0.316,0.082-0.634,0.118-0.951c0.136-1.023,0.235-2.03,0.317-3.018c0.027-0.317,0.045-0.625,0.063-0.934
			c0.1-1.541,0.127-3.027,0.063-4.449c-0.009-0.309-0.026-0.617-0.054-0.916c-0.1-1.324-0.29-2.583-0.58-3.742
			c-0.616-2.493-1.713-4.559-3.435-6.037c-0.58-0.499-1.224-0.897-1.822-1.35c-2.184-1.659-11.392-1.876-18.506-1.586h-0.009
			c-4.105,0.163-7.513,0.499-8.483,0.825c-0.271,0.09-0.335,0.072-0.417,0.145c-0.987,0.924-1.93,1.785-2.818,2.628
			c-0.217,0.208-0.443,0.417-0.652,0.616c-0.697,0.671-1.359,1.314-1.993,1.958c-0.218,0.227-0.436,0.453-0.644,0.68
			c-0.916,0.979-1.74,1.948-2.456,2.954c-0.19,0.254-0.372,0.526-0.535,0.788c-0.571,0.879-1.061,1.795-1.449,2.756
			c-0.146,0.344-0.273,0.697-0.381,1.061c-0.335,0.996-0.571,2.057-0.698,3.207c-0.082,0.734-0.127,1.505-0.127,2.32
			c0,1.369,0.127,2.856,0.398,4.496c0.128,0.843,0.3,1.73,0.508,2.664c0.227,0.971,0.48,1.976,0.789,3.045v0.009
			c0.09,0.326,0.19,0.662,0.29,0.997c0.263,0.889,0.561,1.803,0.879,2.755c0.072,0.227,0.154,0.453,0.235,0.688
			c0.172,0.508,0.271,1.052,0.3,1.614v0.009c0.018,0.381,0.008,0.779-0.037,1.186v0.009c-0.108,1.151-0.435,2.384-0.897,3.707
			c-0.099,0.29-0.208,0.59-0.326,0.897c-0.344,0.898-0.734,1.831-1.15,2.8c-0.127,0.3-0.264,0.598-0.399,0.907
			c-0.507,1.15-1.042,2.347-1.567,3.58c-0.136,0.325-0.271,0.643-0.408,0.969c-0.371,0.898-0.725,1.813-1.06,2.737
			c-0.127,0.353-0.245,0.715-0.363,1.069c-0.271,0.824-0.525,1.657-0.734,2.493c-0.099,0.389-0.19,0.787-0.28,1.178
			C593.741,294.258,593.642,294.82,593.56,295.382z"/>
		<g>
			<path style="fill:#8B383E;" d="M613.326,204.408c-4.991-0.132-5.319,10.808,0.669,16.625
				C619.983,226.85,621.472,204.622,613.326,204.408z"/>
			<path style="fill:#FF8B66;" d="M630.347,203.348c0,0-14.883-4.982-17.879,5.495c-2.997,10.478-0.275,21.53,6.71,20.791
				C629.007,228.594,641.907,209.242,630.347,203.348z"/>
			<path style="fill:#DB614D;" d="M622.852,218.066c0.066,0.627-0.516,1.203-1.302,1.286c-0.784,0.083-1.475-0.359-1.54-0.987
				c-0.067-0.628,0.516-1.203,1.301-1.286C622.095,216.997,622.785,217.439,622.852,218.066z"/>
			<g>
				<path style="fill:#58595B;" d="M621.696,211.642c-0.096-0.006-0.188-0.056-0.242-0.143c-0.62-0.968-1.819-0.854-1.832-0.853
					c-0.17,0.019-0.322-0.104-0.34-0.274c-0.018-0.17,0.106-0.322,0.275-0.34c0.064-0.007,1.594-0.152,2.417,1.135
					c0.092,0.143,0.05,0.335-0.094,0.427C621.823,211.629,621.759,211.645,621.696,211.642z"/>
			</g>
			<g>
				<path style="fill:#58595B;" d="M614.837,210.051c-0.063-0.003-0.126-0.027-0.178-0.07c-0.88-0.729-1.96-0.273-2.006-0.253
					c-0.156,0.068-0.338-0.004-0.406-0.161c-0.068-0.156,0.003-0.337,0.158-0.406c0.06-0.026,1.472-0.631,2.648,0.344
					c0.131,0.109,0.148,0.304,0.04,0.436C615.029,210.019,614.932,210.056,614.837,210.051z"/>
			</g>
			<path style="fill:#1A4850;" d="M613.326,221.033c0,0,2.246,1.447,6.172,0.179c0,0-1.181,4.653-3.676,4.063
				C613.326,224.683,613.326,221.033,613.326,221.033z"/>
			<path style="fill:#58595B;" d="M624.421,208.734c0,0,3.405,4.34,3.231,9.975c0,0,2.497-3.06,3.804-0.401
				c1.306,2.659-3.925,6.543-3.925,6.543s8.422,0.475,9.412-10.419C637.359,209.843,631.402,205.652,624.421,208.734z"/>
			<path style="fill:#EF6E4B;" d="M627.345,222.499c-1.142,3.075-5.519,8.402-10.156,6.881c0,0,0.517,5.955-1.943,6.53
				c0,0-0.856,3.274,3.78,3.779c5.801,0.631,10.253-4.233,10.253-4.233c-3.799,0.257-0.278-12.389-0.278-12.389
				C627.747,223.894,627.345,222.499,627.345,222.499z"/>
			<g>
				<path style="fill:#DB614D;" d="M614.065,219.477l0.276-0.622c-0.113-0.051-1.096-0.527-0.702-1.487
					c0.12-0.29,0.286-0.475,0.492-0.549c0.366-0.131,0.78,0.092,0.785,0.095l0.328-0.596c-0.027-0.015-0.68-0.371-1.333-0.143
					c-0.4,0.14-0.703,0.454-0.9,0.934C612.488,218.383,613.473,219.215,614.065,219.477z"/>
			</g>
			<path style="fill:#1A4850;" d="M620.665,215.386c-0.043,0.67-0.423,1.19-0.847,1.162c-0.425-0.028-0.732-0.592-0.69-1.262
				c0.043-0.67,0.423-1.19,0.848-1.163C620.4,214.15,620.709,214.716,620.665,215.386z"/>
			<path style="fill:#1A4850;" d="M621.068,215.212c0,0-0.355-1.541-0.901-1.577c-0.546-0.036-1.459,0.99-1.459,0.99l-1.003-0.73
				l0.966,0.379c0,0,0.835-1.173,1.594-0.934C621.023,213.578,621.068,215.212,621.068,215.212z"/>
			<path style="fill:#1A4850;" d="M614.467,214.425c-0.043,0.67-0.423,1.19-0.847,1.163c-0.425-0.028-0.733-0.593-0.689-1.263
				c0.043-0.669,0.423-1.189,0.847-1.163C614.202,213.191,614.51,213.756,614.467,214.425z"/>
			<path style="fill:#1A4850;" d="M614.869,214.252c0,0-0.354-1.541-0.9-1.577c-0.546-0.036-1.46,0.99-1.46,0.99l-1.002-0.731
				l0.966,0.379c0,0,0.834-1.174,1.593-0.934C614.825,212.618,614.869,214.252,614.869,214.252z"/>
			<path style="fill:#58595B;" d="M620.652,205.704c0,0-2.25,11.812,6.999,13.005c0,0,3.304-5.615,7.666-1.686
				c0,0,4.662-12.81-6.317-14.859c0,0-2.135-4.908-10.679-3.348c-11.933,2.179-12.101,15.306-7.06,20.661
				C611.262,219.477,608.129,203.541,620.652,205.704z"/>
		</g>
		<path style="fill:#EF6E4B;" d="M641.863,330.429c-0.096,0.822,2.059,1.738,2.059,1.738s0.755,1.448,1.867,1.448
			c1.111,0,3.387-3.767,1.608-5.71C645.618,325.961,642.161,327.864,641.863,330.429z"/>
		<g>
			<g>
				<path style="fill:#0A4993;" d="M639.993,339.193c0.161,0,0.305-0.114,0.334-0.279c0.015-0.079,1.487-7.891,7.643-9.311
					c1.293-0.297,2.21-0.143,2.72,0.459c1.291,1.525-0.017,5.705-0.63,7.186c-0.071,0.175,0.011,0.373,0.184,0.445
					c0.173,0.072,0.371-0.011,0.444-0.185c0.097-0.232,2.343-5.733,0.52-7.886c-0.688-0.815-1.83-1.044-3.392-0.682
					c-6.598,1.521-8.145,9.769-8.16,9.853c-0.033,0.185,0.09,0.361,0.275,0.395C639.953,339.191,639.974,339.193,639.993,339.193z"
					/>
			</g>
			<polygon style="fill:#DC933F;" points="628.739,339.408 659.622,334.108 660.436,335.057 667.049,334.951 647.402,349.588 
				636.309,349.243 632.379,345.971 			"/>
			<polygon style="fill:#F9D964;" points="667.24,352.663 674.524,376.842 640.692,385.601 629.971,382.28 630.982,355.319 
				628.736,339.408 635.071,339.905 635.925,341.395 667.049,334.951 			"/>
			<polygon style="fill:#DC933F;" points="629.97,382.276 640.695,385.603 637.012,359.327 635.93,341.395 635.071,339.902 
				628.739,339.408 630.98,355.319 			"/>
			<polygon style="fill:#F4B71E;" points="629.97,382.276 636.605,377.883 634.493,357.836 635.071,339.902 628.739,339.408 
				630.98,355.319 			"/>
			<polygon style="fill:#F9D964;" points="636.605,377.883 640.695,385.603 629.97,382.276 			"/>
			<g>
				<path style="fill:#0A4993;" d="M646.669,341.646c0.047,0,0.095-0.01,0.14-0.03c0.171-0.076,0.248-0.278,0.171-0.448
					c-0.041-0.093-4.082-9.267,1.055-11.585c5.474-2.471,11.074,9.399,11.131,9.521c0.079,0.17,0.281,0.245,0.452,0.165
					c0.17-0.079,0.243-0.281,0.164-0.451c-0.24-0.516-5.942-12.6-12.026-9.854c-5.753,2.597-1.576,12.081-1.396,12.482
					C646.416,341.571,646.54,341.646,646.669,341.646z"/>
			</g>
		</g>
		<path style="fill:#FF8B66;" d="M647.895,322.154c0,0,4.114,5.5,3.69,6.746c-0.423,1.247-3.69,2.687-3.69,2.687
			s-0.625,2.247-2.106,2.028c0,0,0.654-1.331,0.18-2.714c-0.475-1.382-2.708-1.787-2.708-1.787l-1.398,1.314
			c0,0-0.092-5.956,0.817-7.694C643.591,320.997,647.895,322.154,647.895,322.154z"/>
		<path style="fill:#FF8B66;" d="M609.854,236.783c7.94,12.18,28.385,8.917,28.385,8.917s5.728-4.387,2.274-9.036
			c-0.769-1.024-2.981-1.957-5.165-2.012c-0.508-0.009-1.006,0.018-1.486,0.109c-9.869,1.803-16.522,1.087-22.203,1.087
			c-0.082,0-0.154,0-0.227,0.009C609.854,235.931,609.854,236.783,609.854,236.783z"/>
		<path style="fill:#FF8B66;" d="M586.311,273.831c2.49-4.775,1.875-27.473,3.279-32.751l-5.346-0.634c0,0-0.201,3.27-1.787,9.483
			c-1.586,6.213-4.758,21.218-1.586,23.911C584.043,276.533,586.311,273.831,586.311,273.831z"/>
		<path style="fill:#EF6E4B;" d="M611.432,235.858c0.897,1.976,4.985,2.719,4.985,2.719l0.525,1.794l3.063-1.867
			c7.539-0.454,13.249-3.607,15.343-3.852c-0.508-0.009-1.006,0.018-1.486,0.109c-9.869,1.803-16.522,1.087-22.203,1.087
			C611.577,235.849,611.505,235.849,611.432,235.858z"/>
		<g>
			<path style="fill:#25559F;" d="M589.342,233.026c0.771,5.338,0.725,5.728,1.124,6.1c0.226,0.208,0.408,0.372,3.117,0.924
				c1.514,0.317,2.267,0.426,2.683,0.389c0.281-0.018,0.408-0.108,0.499-0.253c0.281-0.444,0.217-1.051-0.526-6.471
				c-0.824-5.954-0.86-6.172-0.951-6.425c-0.199-0.562-0.599-0.753-3.317-1.151c-2.944-0.436-3.036-0.49-3.335-0.245
				c-0.072,0.055-0.126,0.127-0.144,0.254C588.372,226.636,588.617,228.005,589.342,233.026z"/>
			<path style="fill:#3C71BC;" d="M589.342,233.026c0.771,5.338,0.725,5.728,1.124,6.1c0.226,0.208,0.408,0.372,3.117,0.924
				c1.514,0.317,2.267,0.426,2.683,0.389c0.199-0.471,0.082-1.441-0.598-6.325c-0.825-5.954-0.852-6.172-0.942-6.426
				c-0.199-0.571-0.607-0.761-3.326-1.16c-1.831-0.263-2.556-0.39-2.909-0.381C588.372,226.636,588.617,228.005,589.342,233.026z"/>
		</g>
		<path style="fill:#FF8B66;" d="M596.62,233.862c-1.39-1.717-1.388-2.149-5.239-2.617c0,0,0.977-0.782,1.31-1.122
			c0.332-0.34,2.132,0.089,2.655-0.396c0.619-0.575-0.231-0.607-1.218-0.651c-0.746-0.034-1.742-0.323-2.181-0.079
			c-1.019,0.566-2.439,1.361-3.485,2.647c-1.046,1.286-3.425,5.779-4.168,8.563c-0.435,1.627,2.075,2.711,4.168,1.641
			c2.381-1.218,2.777-3.568,4.646-4.814l1.813,1.076c0,0-0.389,1.271,0.036,1.341c0.316,0.053,0.587-0.727,0.773-1.479
			c0.091-0.367-0.838-1.874-0.838-1.874l1.104,0.538c0,0,0.178,1.228,0.849,1.185c0.25-0.016,0.277-0.565,0.199-1.241
			c-0.053-0.455-0.077-0.859-0.453-1.272C596.592,235.309,597.399,234.824,596.62,233.862z"/>
		<g>
			<g>
				<path style="fill:#C4F1F7;" d="M599.379,266.109c0.09,0.326,0.19,0.662,0.29,0.997c0.136,0.027,0.271,0.064,0.426,0.09
					c1.64,0.336,4.387,0.898,9.533,3.88c6.825,3.942,15.099,4.694,20.409,4.694c3.218,0,5.348-0.281,5.402-0.29l-0.118-0.897
					c-0.145,0.019-14.555,1.876-25.24-4.296c-5.273-3.046-8.11-3.634-9.806-3.979C599.922,266.236,599.632,266.173,599.379,266.109z
					"/>
			</g>
			<g>
				<path style="fill:#C4F1F7;" d="M601.046,273.359v0.009c4.523,3.834,15.797,6.354,33.596,7.522
					c0.78,0.055,1.45,0.101,1.567,0.118l0.182-0.889c-0.153-0.026-0.607-0.055-1.686-0.127c-22.448-1.478-30.768-4.911-33.622-7.82
					C601.101,272.554,601.091,272.952,601.046,273.359z"/>
			</g>
			<g>
				<path style="fill:#C4F1F7;" d="M599.822,277.973c8.229,6.716,28.874,7.82,35.264,7.82c0.807,0,1.377-0.017,1.677-0.045
					c0.09-0.009,0.154-0.018,0.19-0.026l-0.108-0.472v-0.009l-0.091-0.408c-1.432,0.236-27.741-0.082-36.604-7.758
					C600.05,277.365,599.94,277.665,599.822,277.973z"/>
			</g>
			<g>
				<path style="fill:#C4F1F7;" d="M598.272,281.68c6.979,7.213,29.011,9.915,38.01,10.983c0-0.299,0-0.606,0.009-0.915
					c-9.09-1.079-31.293-3.815-37.619-10.976C598.545,281.072,598.408,281.37,598.272,281.68z"/>
			</g>
			<g>
				<path style="fill:#C4F1F7;" d="M596.297,286.229c8.103,10.649,31.176,12.68,40.203,13.06c-0.018-0.31-0.037-0.617-0.055-0.926
					c-3.652-0.182-9.589-0.634-15.869-1.793c-9.335-1.731-19.412-5.031-23.871-11.311
					C596.569,285.585,596.434,285.902,596.297,286.229z"/>
			</g>
			<g>
				<path style="fill:#C4F1F7;" d="M594.874,290.035c10.54,14.728,32.916,17.138,42.387,17.473
					c-0.036-0.299-0.072-0.599-0.108-0.906c-9.517-0.353-31.829-2.809-41.915-17.636
					C595.11,289.319,594.992,289.681,594.874,290.035z"/>
			</g>
			<g>
				<path style="fill:#C4F1F7;" d="M593.859,293.706c13.349,19.031,36.695,22.847,44.979,23.607
					c-0.055-0.299-0.118-0.607-0.182-0.914c-8.455-0.816-31.584-4.768-44.517-23.871
					C594.041,292.917,593.95,293.315,593.859,293.706z"/>
			</g>
		</g>
		<path style="fill:#FF8B66;" d="M640.513,236.669c-3.021-3.229-7.84,2.03-8.128,11.311c-0.116,3.693,1.366,23.427,2.332,35.915
			c1.169,15.112,7.964,38.84,7.964,38.84s3.044,1.344,5.214-0.58c0,0-3.068-33.847-4.604-40.857
			C643.291,281.297,646.209,242.757,640.513,236.669z"/>
		<path style="fill:#CE364C;" d="M622.86,245.084c0,0,0.317,1.351,0.869,3.507c0.073,0.309,0.164,0.635,0.254,0.979
			c0.218,0.878,0.472,1.857,0.753,2.909c0.09,0.336,0.181,0.67,0.271,1.023c0.19,0.697,0.39,1.432,0.589,2.175
			c0.091,0.317,0.182,0.643,0.273,0.97c0.281,1.007,0.57,2.049,0.879,3.09c0.091,0.31,0.182,0.617,0.263,0.916
			c0.489,1.668,1.006,3.354,1.531,4.985c0.101,0.316,0.2,0.634,0.309,0.942c0.345,1.069,0.707,2.111,1.061,3.107
			c0.1,0.291,0.208,0.572,0.308,0.853c0.589,1.604,1.178,3.063,1.75,4.276c0.153,0.317,0.299,0.616,0.443,0.898
			c0.662,1.287,1.296,2.212,1.876,2.619c1.006,0.707,2.284,1.188,3.634,1.459c4.297,0.871,9.253-0.353,7.867-2.764
			c-0.661-1.143-0.607-2.147-0.254-3.263c0.127-0.371,0.28-0.762,0.453-1.178c0.507-1.224,1.179-2.628,1.577-4.478
			c0.072-0.326,0.136-0.68,0.181-1.041c0.072-0.464,0.118-0.953,0.146-1.478c0.045-0.906-0.027-1.994-0.182-3.189
			c-0.045-0.336-0.09-0.69-0.144-1.043c-0.2-1.287-0.472-2.664-0.78-4.061c-0.072-0.298-0.144-0.607-0.217-0.905
			c-0.172-0.77-0.372-1.55-0.563-2.312c-0.081-0.299-0.153-0.588-0.227-0.879c-0.389-1.449-0.788-2.836-1.142-4.042
			c-0.09-0.308-0.172-0.598-0.263-0.87c-0.652-2.193-1.142-3.643-1.142-3.643c-0.363,0.1-0.743,0.199-1.124,0.281
			C636.3,246.298,628.615,246.036,622.86,245.084z"/>
		<g>
			<g>
				<path style="fill:#C4F1F7;" d="M603.838,236.338c0.217,1.133,0.915,2.456,2.129,3.834c1.577,1.804,4.043,3.726,7.413,5.483
					c1.903,1.006,4.097,1.948,6.589,2.8c1.351,0.462,2.692,0.834,4.015,1.115c3.209,0.706,6.317,0.97,9.172,0.97
					c3.797,0,7.132-0.463,9.588-0.951c0.707-0.146,1.342-0.29,1.895-0.427c-0.09-0.308-0.172-0.598-0.263-0.87
					c-0.499,0.127-1.06,0.254-1.685,0.381c-4.277,0.869-11.374,1.686-18.96-0.082c-1.15-0.271-2.31-0.598-3.47-0.996
					c-2.43-0.825-4.587-1.759-6.472-2.746c-3.235-1.703-5.646-3.553-7.169-5.292c-1.178-1.342-1.83-2.611-1.94-3.689
					c-0.008-0.127-0.018-0.245-0.018-0.363C604.417,235.686,604.137,235.976,603.838,236.338z"/>
			</g>
			<g>
				<path style="fill:#C4F1F7;" d="M601.354,240.163c0.326,0.807,0.988,1.703,1.976,2.646c1.804,1.758,4.694,3.697,8.664,5.637
					c3.335,1.649,7.44,3.299,12.289,4.84c0.244,0.081,0.48,0.154,0.725,0.217c4.278,1.297,8.401,1.949,12.208,1.949
					c1.885,0,3.689-0.164,5.401-0.48c1.178-0.218,2.311-0.508,3.389-0.889c-0.081-0.299-0.153-0.588-0.227-0.879
					c-0.987,0.354-2.021,0.625-3.099,0.834c-5.212,1.023-11.401,0.498-17.944-1.559c-0.063-0.018-0.118-0.037-0.182-0.055
					c-4.875-1.55-8.918-3.199-12.153-4.813c-3.97-1.957-6.751-3.869-8.428-5.482c-1.278-1.224-1.922-2.275-1.985-3.055
					C601.78,239.42,601.572,239.782,601.354,240.163z"/>
			</g>
			<g>
				<path style="fill:#C4F1F7;" d="M599.034,244.331c0.172,0.227,0.362,0.408,0.535,0.545c0.018,0.606,0.29,1.15,0.769,1.676
					c1.097,1.215,3.29,2.329,6.127,3.779c1.133,0.57,2.393,1.215,3.725,1.948c0.28,0.146,0.562,0.3,0.852,0.463
					c3.762,2.093,6.752,2.573,10.541,3.172c1.313,0.209,2.719,0.435,4.286,0.733c1.821,0.363,3.878,0.835,6.29,1.532
					c2.636,0.752,4.902,1.042,6.842,1.042c1.187,0,2.247-0.108,3.181-0.281c2.121-0.38,3.643-1.087,4.603-1.641
					c-0.072-0.298-0.144-0.607-0.217-0.905c-0.861,0.489-2.257,1.196-4.269,1.595c-2.384,0.48-5.647,0.535-9.888-0.689
					c-2.646-0.761-4.857-1.25-6.815-1.622c-1.404-0.262-2.673-0.471-3.878-0.661c-3.843-0.607-6.616-1.051-10.232-3.063
					c-0.308-0.171-0.616-0.344-0.925-0.507c-1.314-0.717-2.564-1.351-3.688-1.922c-2.864-1.468-5.13-2.619-6-3.761
					c-0.29-0.362-0.426-0.716-0.399-1.087l0.019-0.273l-0.235-0.145c-0.027-0.027-0.444-0.289-0.743-0.806
					C599.352,243.743,599.188,244.042,599.034,244.331z"/>
			</g>
			<g>
				<path style="fill:#C4F1F7;" d="M596.95,248.075c0.57,0.969,1.196,1.758,1.404,2.012c0.046,0.1,0.091,0.189,0.154,0.281
					c1.042,1.748,4.015,2.627,7.73,3.742c0.888,0.263,1.821,0.544,2.782,0.852c1.341,0.426,2.736,0.907,4.133,1.487
					c1.423,0.588,2.609,1.123,3.661,1.602c3.435,1.561,5.51,2.502,10.195,2.602c0.697,0.018,1.459,0.018,2.284-0.008
					c4.232-0.128,4.93,0.426,5.809,1.123c0.789,0.625,1.776,1.395,4.958,1.957c0.452,0.082,0.888,0.137,1.305,0.173
					c0.398,0.036,0.77,0.055,1.133,0.055c2.429,0,4.114-0.743,5.211-1.55c-0.045-0.336-0.09-0.69-0.144-1.043
					c-1.061,0.906-2.937,1.886-6.036,1.633c-0.417-0.028-0.853-0.083-1.314-0.164c-2.954-0.517-3.797-1.188-4.549-1.777
					c-1.133-0.896-2.058-1.439-6.398-1.314c-0.925,0.028-1.758,0.028-2.519,0c-4.305-0.135-6.316-1.041-9.562-2.509
					c-1.051-0.482-2.247-1.025-3.688-1.622c-1.396-0.572-2.782-1.053-4.123-1.478c-0.997-0.327-1.967-0.616-2.882-0.889
					c-3.716-1.104-6.644-1.985-7.332-3.579l-0.073-0.109c-0.063-0.072-0.126-0.154-0.198-0.244
					c-0.399-0.508-0.961-1.305-1.414-2.148C597.304,247.477,597.131,247.775,596.95,248.075z"/>
			</g>
			<g>
				<path style="fill:#C4F1F7;" d="M594.385,252.116c1.006,1.033,2.32,1.858,2.909,2.202c-0.018,0.536,0.108,1.061,0.39,1.577
					c0.853,1.65,3.117,3.154,6.398,4.188c0.951,0.299,1.903,0.471,2.81,0.58c0.934,0.107,1.83,0.145,2.674,0.181
					c2.129,0.091,3.969,0.173,5.338,1.278c2.184,1.767,10.014,4.016,13.947,4.459c0.889,0.1,1.586,0.109,1.967,0
					c1.477-0.418,5.238,0.289,9.761,1.242h0.009c0.57,0.117,1.16,0.234,1.749,0.361l0.345,0.073
					c0.869,0.181,1.649,0.253,2.347,0.253c0.997,0,1.84-0.153,2.538-0.398c0.072-0.326,0.136-0.68,0.181-1.041
					c-1.097,0.488-2.673,0.76-4.876,0.298l-0.344-0.073c-0.607-0.125-1.196-0.253-1.758-0.361c-4.94-1.043-8.52-1.705-10.205-1.223
					c-0.335,0.1-1.06,0.063-2.021-0.073c-3.725-0.526-11.02-2.565-13.077-4.224c-1.595-1.287-3.67-1.377-5.863-1.477
					c-0.789-0.037-1.596-0.073-2.411-0.154c-0.925-0.1-1.867-0.264-2.837-0.563c-3.942-1.232-6.407-3.281-6.135-5.084l0.046-0.309
					l-0.281-0.154c-0.055-0.026-0.109-0.063-0.173-0.1c-0.934-0.534-2.094-1.359-2.882-2.201
					C594.738,251.645,594.558,251.9,594.385,252.116z"/>
			</g>
			<g>
				<path style="fill:#C4F1F7;" d="M592.826,255.569v0.01c0.906,1.993,2.248,3.227,3.407,4.286c0.97,0.879,1.804,1.641,2.066,2.619
					c0.055,0.208,0.154,0.399,0.29,0.571c0.925,1.188,3.58,1.522,6.661,1.83c0.209,0.018,0.417,0.046,0.626,0.063
					c3.181,0.318,6.778,0.681,8.02,1.969c2.673,2.764,12.859,4.376,16.321,3.625c0.263-0.047,0.48-0.119,0.662-0.201
					c1.903-0.877,5.192,0.79,8.528,2.837c0.163,0.101,0.326,0.2,0.489,0.3c0.942,0.589,1.93,0.807,2.899,0.807
					c0.979,0,1.922-0.227,2.737-0.517c0.127-0.371,0.28-0.762,0.453-1.178c-1.495,0.679-3.743,1.286-5.61,0.126
					c-0.253-0.154-0.507-0.316-0.761-0.462c-3.271-1.993-6.807-3.815-9.117-2.737c-0.145,0.072-0.345,0.127-0.589,0.172
					c-3.027,0.563-12.86-0.814-15.361-3.397c-1.478-1.532-5.084-1.894-8.583-2.248c-0.118-0.009-0.217-0.026-0.335-0.035h-0.009
					c-2.937-0.291-6.136-0.653-6.443-1.769c-0.2-0.707-0.599-1.296-1.098-1.848c-0.371-0.398-0.788-0.789-1.232-1.197
					c-1.405-1.277-2.973-2.719-3.707-5.438C592.953,254.255,592.854,254.872,592.826,255.569z"/>
			</g>
		</g>
	</g>
	<g>
		<path style="fill:#84A8EF;" d="M634.985,161.1c0,4.065-3.296,7.361-7.361,7.361H495.362c-4.065,0-7.361-3.296-7.361-7.361v-37.648
			c0-4.065,3.296-7.361,7.361-7.361h132.262c4.066,0,7.361,3.296,7.361,7.361V161.1z"/>
		<path style="fill:#84A8EF;" d="M562.761,164.897c0,0,5.4,19.5,30.45,32.5c0,0-17.45-12.5-17.45-32.5H562.761z"/>
		<g>
			<polygon style="fill:#FFFFFF;" points="514.212,133.077 517.201,139.133 523.884,140.104 519.048,144.818 520.19,151.474 
				514.212,148.332 508.234,151.474 509.376,144.818 504.54,140.104 511.223,139.133 			"/>
			<polygon style="fill:#FFFFFF;" points="537.853,133.077 540.842,139.133 547.524,140.104 542.688,144.818 543.83,151.474 
				537.853,148.332 531.875,151.474 533.017,144.818 528.181,140.104 534.863,139.133 			"/>
			<polygon style="fill:#FFFFFF;" points="561.493,133.077 564.482,139.133 571.165,140.104 566.329,144.818 567.471,151.474 
				561.493,148.332 555.516,151.474 556.657,144.818 551.821,140.104 558.504,139.133 			"/>
			<polygon style="fill:#FFFFFF;" points="585.134,133.077 588.123,139.133 594.806,140.104 589.97,144.818 591.111,151.474 
				585.134,148.332 579.156,151.474 580.298,144.818 575.462,140.104 582.145,139.133 			"/>
			<polygon style="fill:#FFFFFF;" points="608.774,133.077 611.764,139.133 618.446,140.104 613.61,144.818 614.752,151.474 
				608.774,148.332 602.797,151.474 603.938,144.818 599.103,140.104 605.785,139.133 			"/>
		</g>
	</g>
	<path style="fill:#6383EA;" d="M722.232,436.136c0,1.657-1.344,3.001-3.001,3.001H30.768c-1.657,0-3-1.344-3-3.001l0,0
		c0-1.656,1.343-3,3-3h688.464C720.889,433.136,722.232,434.479,722.232,436.136L722.232,436.136z"/>
</g>
</svg>
